<?xml version="1.0" standalone="no"?>
<!DOCTYPE svg PUBLIC "-//W3C//DTD SVG 1.1//EN" "http://www.w3.org/Graphics/SVG/1.1/DTD/svg11.dtd" >
<svg xmlns="http://www.w3.org/2000/svg">
<metadata>
Created by FontPrep 20130207 at Mon Aug 25 14:17:16 2014
 By Teerasak.Vichadee
Copyright (c) 2008 by Prinya R. nont. All rights reserved.
</metadata>
<defs>
<font id="f8dd57e6b91d621327e4c9095bddf78a" horiz-adv-x='1024' >
  <font-face 
    font-family="DBHelvethaicaX-Med"
    font-weight="500"
    font-stretch="normal"
    units-per-em="2048"
    panose-1="2 0 5 6 9 0 0 2 0 4"
    ascent="1638"
    descent="-410"
    x-height="727"
    cap-height="1000"
    bbox="-1084 -670 1753 1638"
    underline-thickness="41"
    underline-position="-232"
    unicode-range="U+0020-F882"
  />
<missing-glyph horiz-adv-x="348" 
 />
    <glyph glyph-name="plusminus" unicode="&#x2b;&#x2d;" horiz-adv-x="839" 
d="M356 545v231h130v-231h300v-129h-300v-232h-130v232h-303v129h303zM786 129v-129h-733v129h733z" />
    <glyph glyph-name="ellipsis" unicode="&#x2e;&#x2e;&#x2e;" horiz-adv-x="1388" 
d="M790 194v-196h-196v196h196zM1254 194v-196h-197v196h197zM330 194v-196h-197v196h197z" />
    <glyph glyph-name="lessequal" unicode="&#x3c;&#x3d;" horiz-adv-x="893" 
d="M250 565l567 -256v-131l-741 332v112l741 334v-132zM817 123v-123h-741v123h741z" />
    <glyph glyph-name="greaterequal" unicode="&#x3e;&#x3d;" horiz-adv-x="893" 
d="M76 824v132l741 -334v-112l-741 -332v131l567 256zM817 123v-123h-741v123h741z" />
    <glyph glyph-name="fongmanfunnuthai" unicode="&#xe4f;&#x22;" horiz-adv-x="1038" 
d="M506 740q-56 0 -114 -25t-102 -68q-94 -96 -94 -225t93 -225q93 -97 226 -97t227 94t94 227q0 132 -94 226q-59 59 -140 81q-40 12 -96 12zM504 295q93 0 126 77q10 24 10 50t-10 48q-34 75 -112 75q-53 0 -91 -37t-38 -86q0 -50 38 -89q37 -38 77 -38zM282 422
q0 48 19 89q40 88 126 124q43 19 91 19t89 -18q85 -37 122 -125q19 -41 19 -89t-18 -90q-39 -89 -123 -125q-41 -19 -89 -19t-91 19q-87 37 -126 125q-19 42 -19 90zM74 418q0 184 131 312t313 128q116 0 221 -60q148 -84 202 -263q15 -56 15 -117q0 -181 -128 -312
q-78 -78 -194 -113q-56 -15 -117 -15q-118 0 -223 60q-154 88 -204 263q-16 56 -16 117zM340 1208h135l-16 -229h-105zM563 1208h137l-14 -229h-106z" />
    <glyph glyph-name="dochadaphinthuthai" unicode="&#xe0e;&#xe3a;" horiz-adv-x="919" 
d="M295 0h-250v137h82v317q0 87 -69 128q38 161 188 234q88 42 184 42q349 0 403 -264q9 -44 9 -88v-795h-164q-32 45 -76 70t-127 25q-128 0 -239 -120v162q89 94 239 94q89 0 165 -34q20 -8 32 -16v628q0 130 -116 177q-42 17 -99 17q-98 1 -155 -37t-66 -79
q57 -50 59 -146v-452zM756 -572q-24 0 -45 10q-70 32 -70 105q0 74 70 104q21 9 55 9t68 -33t34 -80t-24 -71t-44 -34t-44 -10z" />
    <glyph glyph-name="topatakphintuthai" unicode="&#xe0f;&#xe3a;" horiz-adv-x="919" 
d="M127 454q0 87 -69 128q38 161 188 234q88 42 184 42q349 0 403 -264q9 -44 9 -88v-795h-168q-13 62 -54 89q-16 10 -36 10t-36 -10q-46 -29 -46 -89h-142q0 60 -38 89q-16 12 -36 12t-33 -10q-36 -26 -36 -91h-135q0 111 58 170t144 59t140 -77q55 71 133 71
q77 0 115 -38v624q0 130 -116 177q-42 17 -99 17q-98 1 -155 -37t-66 -79q57 -50 59 -146v-452h-250v137h82v317zM756 -572q-24 0 -45 10q-70 32 -70 105q0 74 70 104q21 9 55 9t68 -33t34 -80t-24 -71t-44 -34t-44 -10z" />
    <glyph glyph-name="dochadasarauthai" unicode="&#xe0e;&#xe38;" horiz-adv-x="919" 
d="M295 0h-250v137h82v317q0 87 -69 128q38 161 188 234q88 42 184 42q349 0 403 -264q9 -44 9 -88v-795h-164q-32 45 -76 70t-127 25q-128 0 -239 -120v162q89 94 239 94q89 0 165 -34q20 -8 32 -16v628q0 130 -116 177q-42 17 -99 17q-98 1 -155 -37t-66 -79
q57 -50 59 -146v-452zM684 -656v185h-74v129h232v-314h-158z" />
    <glyph glyph-name="topataksarauthai" unicode="&#xe0f;&#xe38;" horiz-adv-x="919" 
d="M127 454q0 87 -69 128q38 161 188 234q88 42 184 42q349 0 403 -264q9 -44 9 -88v-795h-168q-13 62 -54 89q-16 10 -36 10t-36 -10q-46 -29 -46 -89h-142q0 60 -38 89q-16 12 -36 12t-33 -10q-36 -26 -36 -91h-135q0 111 58 170t144 59t140 -77q55 71 133 71
q77 0 115 -38v624q0 130 -116 177q-42 17 -99 17q-98 1 -155 -37t-66 -79q57 -50 59 -146v-452h-250v137h82v317zM684 -656v185h-74v129h232v-314h-158z" />
    <glyph glyph-name="dochadasarauuthai" unicode="&#xe0e;&#xe39;" horiz-adv-x="919" 
d="M295 0h-250v137h82v317q0 87 -69 128q38 161 188 234q88 42 184 42q349 0 403 -264q9 -44 9 -88v-795h-164q-32 45 -76 70t-127 25q-128 0 -239 -120v162q89 94 239 94q89 0 165 -34q20 -8 32 -16v628q0 130 -116 177q-42 17 -99 17q-98 1 -155 -37t-66 -79
q57 -50 59 -146v-452zM614 -670q-220 0 -229 199h-73v129h233v-114q-1 -82 69 -82t70 82v114h158v-114q0 -149 -121 -197q-43 -17 -107 -17z" />
    <glyph glyph-name="topataksarauuthai" unicode="&#xe0f;&#xe39;" horiz-adv-x="919" 
d="M127 454q0 87 -69 128q38 161 188 234q88 42 184 42q349 0 403 -264q9 -44 9 -88v-795h-168q-13 62 -54 89q-16 10 -36 10t-36 -10q-46 -29 -46 -89h-142q0 60 -38 89q-16 12 -36 12t-33 -10q-36 -26 -36 -91h-135q0 111 58 170t144 59t140 -77q55 71 133 71
q77 0 115 -38v624q0 130 -116 177q-42 17 -99 17q-98 1 -155 -37t-66 -79q57 -50 59 -146v-452h-250v137h82v317zM614 -670q-220 0 -229 199h-73v129h233v-114q-1 -82 69 -82t70 82v114h158v-114q0 -149 -121 -197q-43 -17 -107 -17z" />
    <glyph glyph-name=".notdef" horiz-adv-x="348" 
 />
    <glyph glyph-name=".null" 
 />
    <glyph glyph-name="nonmarkingreturn" horiz-adv-x="395" 
 />
    <glyph glyph-name="space" unicode=" " horiz-adv-x="348" 
 />
    <glyph glyph-name="exclam" unicode="!" horiz-adv-x="518" 
d="M170 1000h180v-314l-36 -412h-107l-37 412v314zM358 190v-190h-198v190h198z" />
    <glyph glyph-name="quotedbl" unicode="&#x22;" horiz-adv-x="612" 
d="M262 1000v-365h-118v365h118zM471 1000v-365h-119v365h119z" />
    <glyph glyph-name="numbersign" unicode="#" horiz-adv-x="821" 
d="M51 280v136h152l23 168h-138v133h156l40 283h136l-41 -283h133l39 283h137l-39 -283h121v-133h-137l-25 -168h121v-136h-141l-39 -280h-139l40 280h-128l-42 -280h-136l38 280h-131zM340 416h131l23 168h-130z" />
    <glyph glyph-name="dollar" unicode="$" horiz-adv-x="809" 
d="M236 733q0 -55 26.5 -79t89.5 -42v256q-116 -27 -116 -135zM604 274q0 97 -131 136v-283q91 13 111 65t20 82zM64 720q0 121 82 204.5t206 95.5v96h121v-96q219 -35 277 -308h-164q-29 124 -113 150v-284q169 -30 235 -119.5t66 -163.5q0 -207 -117.5 -258t-183.5 -57
v-117h-121v119q-213 27 -261.5 151.5t-55.5 202.5h165q2 -86 42 -137.5t110 -65.5v309q-150 41 -200 84.5t-69 87.5t-19 106z" />
    <glyph glyph-name="percent" unicode="%" horiz-adv-x="1409" 
d="M1093 1020l-615 -1040h-166l618 1040h163zM1040 574q236 0 236 -292q0 -197 -86 -243.5t-151 -46.5q-124 0 -182.5 79t-58.5 207q0 203 87 249.5t155 46.5zM1037 104q97 0 97 178t-94 179q-100 -1 -100 -179t97 -178zM370 1006q240 0 240 -291q0 -174 -79 -232.5
t-152 -58.5q-244 0 -244 288q0 234 95.5 264t139.5 30zM368 536q101 0 101 178q1 178 -97 179q-98 -1 -98 -179t94 -178z" />
    <glyph glyph-name="ampersand" unicode="&#x26;" horiz-adv-x="915" 
d="M406 628q55 39 82.5 68.5t27.5 80.5q0 50 -37 64.5t-57 14.5t-37 -5t-38 -22t-21 -64t80 -137zM262.5 160.5q51.5 -39.5 114.5 -39.5q120 0 191 92l-210 241q-75 -45 -111 -85.5t-36 -104.5t51.5 -103.5zM660 106q-94 -122 -299 -122q-114 0 -187 48t-99 112t-26 120
q0 105 54 167t167 126q-100 120 -100 215t64.5 157t177.5 62q171 0 215.5 -80.5t44.5 -128.5t-28 -119.5t-148 -138.5l143 -168q13 40 23 130h149q-20 -157 -65 -248l212 -238h-204z" />
    <glyph glyph-name="quotesingle" unicode="'" horiz-adv-x="405" 
d="M262 1000v-365h-118v365h118z" />
    <glyph glyph-name="parenleft" unicode="(" horiz-adv-x="401" 
d="M62 377q0 261 82 418t138 229h138q-188 -302 -188 -648t188 -648h-138q-220 341 -220 649z" />
    <glyph glyph-name="parenright" unicode=")" horiz-adv-x="401" 
d="M170 377q0 172 -43.5 326.5t-144.5 320.5h137q221 -289 221 -647q0 -250 -86 -411.5t-135 -237.5h-137q188 308 188 649z" />
    <glyph glyph-name="asterisk" unicode="*" horiz-adv-x="528" 
d="M209 1010h111v-148l139 52l41 -103l-146 -51l88 -123l-90 -61l-86 124l-86 -124l-96 61l88 123l-144 51l38 103l143 -52v148z" />
    <glyph glyph-name="plus" unicode="+" horiz-adv-x="860" 
d="M796 442v-133h-298v-301h-134v301h-300v133h300v304h134v-304h298z" />
    <glyph glyph-name="comma" unicode="," horiz-adv-x="405" 
d="M301 194v-161q0 -194 -195 -254v115q58 20 69 55t11 49h-82v196h197z" />
    <glyph glyph-name="hyphen" unicode="-" horiz-adv-x="663" 
d="M600 442v-133h-536v133h536z" />
    <glyph glyph-name="period" unicode="." horiz-adv-x="405" 
d="M301 194v-196h-197v196h197z" />
    <glyph glyph-name="slash" unicode="/" horiz-adv-x="528" 
d="M547 1024l-414 -1044h-151l409 1044h156z" />
    <glyph glyph-name="zero" unicode="0" horiz-adv-x="792" 
d="M45 496q0 301 100 399.5t251 98.5q149 0 227 -75t101.5 -184t23.5 -198t-2 -133t-7.5 -88t-42.5 -188t-300 -144q-216 0 -283.5 139t-67.5 373zM215 490q0 -34 3.5 -197.5t177.5 -163.5q173 0 177.5 163.5t4.5 197.5t-2 73t-8 79t-17 77.5t-31.5 66.5t-51 46.5
t-72.5 17.5t-72.5 -17.5t-50.5 -46.5t-31.5 -66.5t-17.5 -77.5t-7.5 -79t-1.5 -73z" />
    <glyph glyph-name="one" unicode="1" horiz-adv-x="792" 
d="M526 977v-977h-162v688q-89 -41 -260 -43v145q125 7 171.5 31.5t71.5 60t36 95.5h143z" />
    <glyph glyph-name="two" unicode="2" horiz-adv-x="792" 
d="M637.5 909.5q93.5 -79.5 93.5 -217.5q0 -174 -102.5 -245t-142.5 -96q-116 -72 -174 -115t-76 -90h487v-146h-690q17 168 95 262t203 174q126 80 176 129.5t50 122.5t-46.5 114.5t-103.5 41.5q-141 0 -162 -96t-19 -140h-164q-14 164 81.5 272.5t248.5 108.5
q152 0 245.5 -79.5z" />
    <glyph glyph-name="three" unicode="3" horiz-adv-x="792" 
d="M314 576h54q110 0 136 50t26 82q0 65 -41.5 100.5t-109.5 35.5q-151 0 -151 -201h-168q6 244 124 295t191 51q148 0 236.5 -72t88.5 -199t-102 -196q144 -54 144 -236q0 -136 -76.5 -203.5t-118 -79t-72 -16.5t-102.5 -5q-71 0 -202.5 43.5t-131.5 296.5h168
q0 -143 65 -171t108 -28t116.5 24.5t73.5 137.5t-72.5 135t-100.5 22h-11l-72 -2v136z" />
    <glyph glyph-name="four" unicode="4" horiz-adv-x="792" 
d="M762 356v-151h-134v-205h-161v205h-432v143l449 629h144v-621h134zM467 356v344q-80 -108 -117.5 -160t-69.5 -95t-65 -89h252z" />
    <glyph glyph-name="five" unicode="5" horiz-adv-x="792" 
d="M397 670q159 0 255 -90t96 -243t-96.5 -251t-254.5 -98t-253 82.5t-99 230.5h164q13 -120 77.5 -146t103.5 -26q82 0 134 54t52 145t-54.5 144.5t-134.5 53.5q-81 0 -121 -35t-59 -53l-141 4l98 535h530v-143h-399l-39 -201q58 37 141 37z" />
    <glyph glyph-name="six" unicode="6" horiz-adv-x="792" 
d="M408 510q-44 0 -78 -15t-57 -41t-35 -61t-12 -75q0 -84 49 -136.5t132 -52.5t130 53.5t47 133.5q0 132 -66 163t-110 31zM209 572q88 84 229 84q140 0 227 -94.5t87 -231.5t-83 -241.5t-267 -104.5q-361 0 -361 477q0 421 153 477t223 56q138 0 216 -71t92 -208h-164
q-15 131 -147 131q-179 0 -205 -274z" />
    <glyph glyph-name="seven" unicode="7" horiz-adv-x="792" 
d="M58 826v151h682v-125q-207 -199 -287.5 -453.5t-88.5 -398.5h-182q23 347 153.5 546.5t202.5 279.5h-480z" />
    <glyph glyph-name="eight" unicode="8" horiz-adv-x="792" 
d="M264.5 172.5q51.5 -43.5 137.5 -43.5q123 0 150.5 63.5t27.5 98.5q0 68 -53 113.5t-109 45.5t-90.5 -11t-74.5 -43t-40 -106t51.5 -117.5zM184 532q-106 71 -106 204q0 73 41.5 134t114.5 92.5t142 31.5q70 0 116 -10.5t132 -55.5t86 -188t-106 -206q148 -74 148 -229
t-100 -238t-250 -83q-250 0 -304.5 117t-54.5 194q0 164 141 237zM290 627.5q44 -35.5 93 -35.5q79 0 118 35t39 80q0 46 -20 92.5t-121 46.5t-127 -45.5t-26 -91.5t44 -81.5z" />
    <glyph glyph-name="nine" unicode="9" horiz-adv-x="792" 
d="M385 467q44 0 78 15t57.5 41.5t35.5 61.5t12 75q0 82 -49 135t-131 53t-130.5 -52.5t-48.5 -133.5q0 -134 66 -164.5t110 -30.5zM584 406q-88 -84 -230 -84t-227.5 93.5t-85.5 236.5q0 195 112.5 268.5t237.5 73.5q361 0 361 -478q0 -425 -154 -478.5t-224 -53.5
q-136 0 -215 71t-91 207h164q15 -131 147 -131q160 0 180.5 121.5t24.5 153.5z" />
    <glyph glyph-name="colon" unicode=":" horiz-adv-x="405" 
d="M301 727v-197h-197v197h197zM301 194v-196h-197v196h197z" />
    <glyph glyph-name="semicolon" unicode=";" horiz-adv-x="405" 
d="M301 194v-161q0 -194 -195 -254v115q58 20 69 55t11 49h-82v196h197zM301 727v-197h-197v197h197z" />
    <glyph glyph-name="less" unicode="&#x3c;" horiz-adv-x="913" 
d="M266 379l564 -254v-135l-746 332v116l746 334v-137z" />
    <glyph glyph-name="equal" unicode="=" horiz-adv-x="854" 
d="M64 172v129h726v-129h-726zM64 450v130h726v-130h-726z" />
    <glyph glyph-name="greater" unicode="&#x3e;" horiz-adv-x="913" 
d="M84 635v137l746 -334v-116l-746 -332v135l563 254z" />
    <glyph glyph-name="question" unicode="?" horiz-adv-x="823" 
d="M528 190v-190h-198v190h198zM665 946.5q87 -77.5 87 -198.5t-55 -174.5t-76 -72.5q-53 -48 -80 -85t-27 -94v-74h-164v86q4 74 39 125t72 87t95.5 96t17.5 149t-132 89t-133.5 -62t-42.5 -160h-164q-4 162 88.5 264t240.5 102q147 0 234 -77.5z" />
    <glyph glyph-name="at" unicode="@" horiz-adv-x="1163" 
d="M612 690q-24 0 -48.5 -11t-54.5 -37t-53.5 -82t-23.5 -92q0 -58 27 -87t59 -29t54 11.5t49.5 38t52 83.5t24.5 91t-5.5 51t-16 31t-25.5 23t-39 9zM316 448q0 42 9 84t38 101.5t96 108t158 48.5q92 0 127 -84l22 66h104l-106 -354q-23 -82 24 -82q59 0 118.5 72.5
t59.5 165.5q0 167 -104.5 253.5t-265.5 86.5q-162 0 -279 -121.5t-117 -293.5q0 -171 121 -289t291 -118q223 0 336 134h132q-165 -236 -470 -236q-225 0 -380.5 148t-155.5 366t155 367t365 149q209 0 352.5 -123t143.5 -293t-117.5 -264.5t-237.5 -87.5q-56 4 -92 55
q-79 -59 -131 -59t-86 15.5t-58.5 42.5t-38 63.5t-13.5 78.5z" />
    <glyph glyph-name="A" unicode="A" horiz-adv-x="964" 
d="M576 1000l388 -1000h-198l-100 280h-382q-14 -36 -26 -70.5l-24 -69t-24 -69.5t-26 -71h-184l383 1000h193zM606 434l-131 367l-129 -367h260z" />
    <glyph glyph-name="B" unicode="B" horiz-adv-x="964" 
d="M572 150q121 0 143.5 58.5t22.5 96.5q0 70 -55.5 100.5t-137.5 30.5h-273v-286h300zM914 297q0 -118 -88 -207.5t-236 -89.5h-494v1000h404q230 0 300 -75t70 -179q0 -143 -106 -214q150 -67 150 -235zM506 588q148 0 169 49t21 81t-6 55t-22 43t-52.5 26t-109.5 6h-234
v-260h234z" />
    <glyph glyph-name="C" unicode="C" horiz-adv-x="1016" 
d="M223 517q0 -270 114.5 -329t185.5 -59t162.5 39t104.5 228h176q-31 -306 -186.5 -360t-245.5 -54t-188.5 27t-198.5 143t-100 345q0 230 129 377.5t358 147.5q262 0 337 -129t89 -215h-180q-37 194 -243 194t-260 -133.5t-54 -221.5z" />
    <glyph glyph-name="D" unicode="D" horiz-adv-x="991" 
d="M948 524q0 -524 -498 -524h-354v1000h354q366 0 432 -178t66 -298zM461 150q234 0 273.5 136t39.5 218q0 169 -72.5 256.5t-236.5 87.5h-193v-698h189z" />
    <glyph glyph-name="E" unicode="E" horiz-adv-x="860" 
d="M819 1000v-152h-547v-260h508v-152h-508v-286h549v-150h-725v1000h723z" />
    <glyph glyph-name="F" unicode="F" horiz-adv-x="809" 
d="M784 1000v-152h-512v-260h447v-152h-447v-436h-176v1000h688z" />
    <glyph glyph-name="G" unicode="G" horiz-adv-x="1067" 
d="M47 491q0 219 128 375t363 156q319 0 375.5 -144t63.5 -208h-174q-36 202 -265 202q-206 0 -260.5 -140.5t-54.5 -214.5t9.5 -119.5t37.5 -107.5t99 -111.5t152 -49.5q212 0 259.5 105.5t49.5 161.5h-314v151h478v-547h-126l-28 92q-118 -110 -320 -110
q-204 0 -338.5 145t-134.5 364z" />
    <glyph glyph-name="H" unicode="H" horiz-adv-x="1016" 
d="M272 1000v-412h472v412h176v-1000h-176v436h-472v-436h-176v1000h176z" />
    <glyph glyph-name="I" unicode="I" horiz-adv-x="397" 
d="M286 1000v-1000h-176v1000h176z" />
    <glyph glyph-name="J" unicode="J" horiz-adv-x="733" 
d="M637 266q0 -198 -110.5 -242t-200.5 -44q-150 0 -230 77t-80 225v76h180v-61q0 -82 27.5 -125t106.5 -43q131 0 131 149v722h176v-734z" />
    <glyph glyph-name="K" unicode="K" horiz-adv-x="966" 
d="M272 0h-176v1000h176v-447l449 447h231l-426 -408l434 -592h-212l-342 471l-134 -129v-342z" />
    <glyph glyph-name="L" unicode="L" horiz-adv-x="776" 
d="M272 1000v-850h498v-150h-674v1000h176z" />
    <glyph glyph-name="M" unicode="M" horiz-adv-x="1216" 
d="M272 0h-176v1000h236l274 -783l276 783h238v-1000h-176v721l-260 -721h-152l-260 723v-723z" />
    <glyph glyph-name="N" unicode="N" horiz-adv-x="1020" 
d="M272 0h-176v1000h201l451 -746v746h176v-1000h-203l-449 740v-740z" />
    <glyph glyph-name="O" unicode="O" horiz-adv-x="1069" 
d="M534 1022q237 0 365.5 -152t128.5 -370t-128 -368t-366 -150t-365.5 149.5t-127.5 368.5t128 370.5t365 151.5zM217 469q0 -185 104 -262.5t211 -77.5q214 0 267 137.5t53 208.5t-8 116.5t-32.5 109.5t-96.5 117.5t-183 53.5q-156 0 -235.5 -109t-79.5 -294z" />
    <glyph glyph-name="P" unicode="P" horiz-adv-x="913" 
d="M545 1000q243 0 284 -116t41 -189q0 -147 -82.5 -225.5t-242.5 -76.5h-273v-393h-176v1000h449zM696 693q0 155 -196 155h-228v-306h228q196 -4 196 151z" />
    <glyph glyph-name="Q" unicode="Q" horiz-adv-x="1069" 
d="M852 500q0 216 -104.5 294t-215.5 78q-156 0 -235.5 -109t-79.5 -294t104 -262.5t211 -77.5q62 0 105 15l-92 75l96 115l127 -102q84 99 84 268zM41 499.5q0 68.5 13.5 134t55 155t153.5 161.5t269 72q239 0 367.5 -152t128.5 -375t-133 -368l137 -109l-94 -116l-166 133
q-104 -53 -213 -53t-177.5 19t-123 54t-95.5 83t-68 105.5t-40.5 122.5t-13.5 133.5z" />
    <glyph glyph-name="R" unicode="R" horiz-adv-x="964" 
d="M725 708q0 140 -155 140h-298v-291h246q207 0 207 151zM901 727q0 -175 -125 -243q85 -55 94.5 -142.5t13.5 -118.5t9.5 -97.5t66.5 -125.5h-200q-39 45 -43 156q-2 26 -4 54t-10.5 73t-40.5 84t-97 43h-293v-410h-176v1000h482q150 0 236.5 -71t86.5 -202z" />
    <glyph glyph-name="S" unicode="S" horiz-adv-x="913" 
d="M698 280q0 99 -105 123.5t-153 34.5t-93 20t-85.5 24t-75.5 34t-61 48.5t-40.5 67t-14.5 89.5t14 94t52.5 92t125 82t176.5 33q270 0 327 -123t61 -213h-168q-17 149 -92.5 167.5t-117.5 18.5q-89 0 -145.5 -33.5t-56.5 -107.5q0 -83 96 -106t143 -33t93 -20t115.5 -34.5
t124 -85.5t54.5 -168q0 -201 -151 -251.5t-232 -50.5t-164 13t-181.5 89.5t-98.5 267.5h168q0 -114 70.5 -168.5t187.5 -54.5q227 0 227 151z" />
    <glyph glyph-name="T" unicode="T" horiz-adv-x="813" 
d="M12 848v152h789v-152h-309v-848h-176v848h-304z" />
    <glyph glyph-name="U" unicode="U" horiz-adv-x="1028" 
d="M272 366q0 -237 242 -237t242 237v634h176v-634q0 -288 -156 -337t-256 -49q-424 0 -424 386v634h176v-634z" />
    <glyph glyph-name="V" unicode="V" horiz-adv-x="893" 
d="M346 0l-346 1000h192l256 -783l258 783h187l-353 -1000h-194z" />
    <glyph glyph-name="W" unicode="W" horiz-adv-x="1294" 
d="M358 270l193 730h191l194 -734l180 734h178l-268 -1000h-184l-201 750l-203 -750h-180l-258 1000h182z" />
    <glyph glyph-name="X" unicode="X" horiz-adv-x="901" 
d="M18 1000h214l218 -351l230 351h200l-327 -486l348 -514h-215l-238 366l-245 -366h-203l342 516z" />
    <glyph glyph-name="Y" unicode="Y" horiz-adv-x="948" 
d="M563 0h-178v402l-385 598h213l266 -430l263 430h206l-385 -596v-404z" />
    <glyph glyph-name="Z" unicode="Z" horiz-adv-x="927" 
d="M98 848v152h762v-140l-580 -710h598v-150h-829v137l586 711h-537z" />
    <glyph glyph-name="bracketleft" unicode="[" horiz-adv-x="385" 
d="M248 891v-1031h127v-132h-287v1296h287v-133h-127z" />
    <glyph glyph-name="backslash" unicode="\" horiz-adv-x="528" 
d="M137 1024l410 -1044h-151l-414 1044h155z" />
    <glyph glyph-name="bracketright" unicode="]" horiz-adv-x="385" 
d="M10 891v133h287v-1296h-287v132h127v1031h-127z" />
    <glyph glyph-name="asciicircum" unicode="^" horiz-adv-x="854" 
d="M496 987l305 -610h-129l-244 487l-238 -487h-137l307 610h136z" />
    <glyph glyph-name="underscore" unicode="_" horiz-adv-x="723" 
d="M712 -94v-117h-702v117h702z" />
    <glyph glyph-name="grave" unicode="`" horiz-adv-x="397" 
d="M232 1024l124 -207h-128l-187 207h191z" />
    <glyph glyph-name="a" unicode="a" horiz-adv-x="766" 
d="M340 129q81 0 128.5 42t47.5 89v92q-30 -12 -65 -21t-66 -17q-88 -23 -131 -43t-43 -66q-1 -76 129 -76zM39 190q0 52 12 86t33.5 57.5t50.5 39t63.5 26.5t73 19t72.5 16t103 25t69 57q0 82 -118 82q-47 0 -101 -9.5t-59 -113.5h-168q6 148 96.5 208.5t226.5 60.5
q291 0 291 -212v-354q0 -23 1 -34t14 -11t53 17v-134q-45 -32 -103 -32q-97 0 -119 80q-93 -80 -231 -80q-182 0 -221 77t-39 129z" />
    <glyph glyph-name="b" unicode="b" horiz-adv-x="844" 
d="M577.5 539q-48.5 67 -145.5 67t-144.5 -70t-47.5 -168q0 -162 72 -199.5t126 -37.5t90 20.5t67 69t31 150.5q0 101 -48.5 168zM246 664q78 90 224 90q97 0 176 -53.5t118 -141t39 -179.5q0 -180 -88 -288t-256 -108q-130 0 -213 90v-74h-168v1000h168v-336z" />
    <glyph glyph-name="c" unicode="c" horiz-adv-x="766" 
d="M39 354q0 269 134.5 329.5t212.5 60.5q150 0 241 -68.5t104 -206.5h-168q-20 104 -73.5 116.5t-97.5 12.5q-93 0 -139 -68t-46 -176q0 -152 69.5 -188.5t132.5 -36.5q132 0 156 157h173q-57 -302 -342 -302q-175 0 -266 102.5t-91 267.5z" />
    <glyph glyph-name="d" unicode="d" horiz-adv-x="844" 
d="M261 201q44 -70 145 -70t149.5 67.5t48.5 169.5q0 159 -70 198.5t-122 39.5t-89 -20t-71.5 -66.5t-34.5 -147.5t44 -171zM598 664v336h168v-1000h-168v74q-83 -90 -213 -90q-168 0 -256 107.5t-88 272.5t90.5 277.5t241.5 112.5q150 0 225 -90z" />
    <glyph glyph-name="e" unicode="e" horiz-adv-x="766" 
d="M274 556.5q-48 -41.5 -61 -104.5h357q-14 60 -64 103t-117 43t-115 -41.5zM404 129q130 0 166 123h163q-55 -268 -333 -268q-179 0 -270 103.5t-91 276.5t99.5 276.5t266.5 103.5t257.5 -127.5t83.5 -309.5h-535q7 -123 76 -150.5t117 -27.5z" />
    <glyph glyph-name="f" unicode="f" horiz-adv-x="469" 
d="M303 824v-97h131v-155h-131v-572h-168v572h-111v155h111v103q0 100 57.5 151t165.5 51q46 0 90 -18v-152q-38 20 -80 20q-65 0 -65 -58z" />
    <glyph glyph-name="g" unicode="g" horiz-adv-x="819" 
d="M391 744q117 0 191 -74v57h160v-680q0 -270 -133 -313t-197 -43t-100.5 6t-137.5 44t-108 199h166q4 -51 52 -80.5t109 -29.5q189 0 189 223v15q-84 -76 -186 -76q-180 0 -268.5 105.5t-88.5 258.5q0 152 82 270t270 118zM388 135q96 0 142 71t46 169q0 148 -65 185.5
t-115 37.5q-94 0 -139.5 -64t-45.5 -164q0 -154 62.5 -194.5t114.5 -40.5z" />
    <glyph glyph-name="h" unicode="h" horiz-adv-x="794" 
d="M246 668q88 78 230 78q52 0 146.5 -38t94.5 -235v-473h-168v484q0 54 -30.5 84t-82.5 30q-95 0 -142.5 -54t-47.5 -134v-410h-168v1000h168v-332z" />
    <glyph glyph-name="i" unicode="i" horiz-adv-x="352" 
d="M260 727v-727h-168v727h168zM92 815v185h168v-185h-168z" />
    <glyph glyph-name="j" unicode="j" horiz-adv-x="352" 
d="M260 -86q0 -207 -199 -207q-47 0 -83 7v149q35 -5 38 -5h33q24 0 33.5 16t9.5 58v795h168v-813zM92 815v185h168v-185h-168z" />
    <glyph glyph-name="k" unicode="k" horiz-adv-x="766" 
d="M244 1000v-535l276 262h224l-296 -271l306 -456h-203l-227 340l-80 -72v-268h-166v1000h166z" />
    <glyph glyph-name="l" unicode="l" horiz-adv-x="352" 
d="M260 1000v-1000h-168v1000h168z" />
    <glyph glyph-name="m" unicode="m" horiz-adv-x="1204" 
d="M518 467q0 129 -107 129t-136 -61.5t-29 -90.5v-444h-168v727h162v-71q84 86 193 86q155 0 219 -95q82 95 212 95q262 0 262 -224v-518h-168v479q0 117 -100 117q-87 0 -129.5 -40.5t-42.5 -111.5v-444h-168v467z" />
    <glyph glyph-name="n" unicode="n" horiz-adv-x="794" 
d="M448 742q216 0 242.5 -107t26.5 -166v-469h-166v482q0 54 -31.5 84t-83.5 30q-95 0 -142.5 -54t-47.5 -134v-408h-168v727h162v-75q79 90 208 90z" />
    <glyph glyph-name="o" unicode="o" horiz-adv-x="817" 
d="M39 362q0 80 23.5 150t69.5 121.5t116 81t162 29.5t195 -44t139 -151t36 -187t-36 -186t-139 -149t-195 -43t-162 29t-116 80t-69.5 120t-23.5 149zM267 190.5q56 -61.5 143 -61.5q131 0 163.5 87.5t32.5 144.5q0 109 -56.5 173t-140.5 64t-141 -63t-57 -173t56 -171.5z
" />
    <glyph glyph-name="p" unicode="p" horiz-adv-x="844" 
d="M581.5 527q-44.5 69 -144.5 69t-148.5 -67.5t-48.5 -170.5q0 -157 70 -197t122 -40t89 20t71 67t34 149q0 101 -44.5 170zM246 -272h-168v999h168v-73q83 90 215 90q168 0 255 -108.5t87 -271.5t-88.5 -276.5t-258.5 -113.5q-135 0 -210 90v-336z" />
    <glyph glyph-name="q" unicode="q" horiz-adv-x="844" 
d="M266.5 187.5q49.5 -66.5 145.5 -66.5q97 0 144.5 69t47.5 168q0 163 -72 200.5t-126 37.5t-90.5 -21t-67.5 -70t-31 -150t49.5 -167.5zM383 744q132 0 215 -90v73h168v-999h-168v336q-78 -90 -211 -90q-168 0 -257 112.5t-89 276.5t87 272.5t255 108.5z" />
    <glyph glyph-name="r" unicode="r" horiz-adv-x="493" 
d="M240 727v-90q47 57 99 81t145 24v-164q-197 0 -217.5 -97t-20.5 -157v-324h-168v727h162z" />
    <glyph glyph-name="s" unicode="s" horiz-adv-x="715" 
d="M463.5 266q-46.5 20 -103.5 31q-58 12 -92 21t-66 21.5t-61 28.5t-50 39t-33.5 52t-12.5 67t12 69.5t42.5 67t99.5 58.5t136 23q307 0 321 -260h-168q-4 59 -46 87.5t-81 28.5t-73 -4.5t-51.5 -24t-17.5 -37.5q0 -30 38 -46.5t124 -37.5l51 -12q119 -28 185.5 -74
t66.5 -141q0 -167 -119 -203t-196 -36q-78 0 -166 21.5t-129.5 100t-45.5 154.5h168q7 -133 168 -133q95 0 120.5 27.5t25.5 59.5t-46.5 52z" />
    <glyph glyph-name="t" unicode="t" horiz-adv-x="459" 
d="M420 727v-155h-134v-384q0 -25 12.5 -31.5t51.5 -6.5h78v-150h-112q-108 0 -141 27.5t-43.5 62.5t-10.5 90v392h-111v155h111v215h165v-215h134z" />
    <glyph glyph-name="u" unicode="u" horiz-adv-x="798" 
d="M78 258v469h172v-483q0 -52 30 -81.5t82 -29.5q96 0 142.5 50.5t46.5 138.5v405h170v-729h-164l-2 72q-82 -86 -205 -86q-217 0 -244.5 107t-27.5 167z" />
    <glyph glyph-name="v" unicode="v" horiz-adv-x="745" 
d="M286 0l-268 727h187l174 -518l168 518h180l-266 -727h-175z" />
    <glyph glyph-name="w" unicode="w" horiz-adv-x="1097" 
d="M674 0l-125 471l-119 -471h-180l-232 727h189l135 -489l121 489h178l127 -489l133 489h179l-232 -727h-174z" />
    <glyph glyph-name="x" unicode="x" horiz-adv-x="770" 
d="M30 727h208l145 -213l147 213h208l-250 -336l272 -391h-207l-170 256l-172 -256h-201l268 381z" />
    <glyph glyph-name="y" unicode="y" horiz-adv-x="751" 
d="M174 -152q58 0 80 48l45 112l-285 719h184l187 -518l176 518h177l-316 -829q-45 -111 -96 -158t-126 -47t-108 14v160q52 -19 82 -19z" />
    <glyph glyph-name="z" unicode="z" horiz-adv-x="755" 
d="M90 578v149h604v-113l-408 -466h402v-148h-626v119l403 459h-375z" />
    <glyph glyph-name="braceleft" unicode="{" horiz-adv-x="483" 
d="M324 184v-252q0 -42 14 -62t51 -20h57v-122h-102q-121 0 -148.5 69t-27.5 115v252q0 109 -45.5 134.5t-69.5 25.5v100q46 0 80.5 46t34.5 114v254q0 131 70 158.5t106 27.5h102v-123h-57q-53 0 -59 -31.5t-6 -54.5v-252q0 -67 -34 -118t-73 -73q107 -46 107 -188z" />
    <glyph glyph-name="bar" unicode="|" horiz-adv-x="327" 
d="M234 1100v-1395h-140v1395h140z" />
    <glyph glyph-name="braceright" unicode="}" horiz-adv-x="483" 
d="M160 184q0 143 106 188q-67 38 -86.5 94.5t-19.5 96.5v252q0 46 -14.5 66t-51.5 20h-57v123h103q74 0 125 -49.5t51 -136.5v-254q0 -66 32.5 -113t81.5 -47v-100q-77 0 -95.5 -62t-18.5 -98v-252q0 -89 -49.5 -136.5t-126.5 -47.5h-103v122h57q37 0 51.5 20t14.5 62v252z
" />
    <glyph glyph-name="asciitilde" unicode="~" horiz-adv-x="854" 
d="M576 362q51 0 124 115l76 -102q-39 -63 -85.5 -100t-113.5 -37t-163.5 50t-128.5 50q-31 0 -53 -16t-80 -103l-72 103q68 141 200 141q65 0 162 -50.5t134 -50.5z" />
    <glyph glyph-name="uni00A0" unicode="&#xa0;" horiz-adv-x="248" 
 />
    <glyph glyph-name="cent" unicode="&#xa2;" horiz-adv-x="772" 
d="M211 368q0 -81 34.5 -141.5t100.5 -78.5v454q-135 -35 -135 -234zM456 -150h-110v150q-149 16 -226 113.5t-77 253t76 261t227 124.5v132h110v-130q182 -19 227 -113.5t52 -158.5h-167q-22 108 -112 124v-458q90 22 114 151h172q-49 -272 -286 -299v-150z" />
    <glyph glyph-name="sterling" unicode="&#xa3;" horiz-adv-x="772" 
d="M58 714q0 147 98.5 227.5t241.5 80.5q254 0 302 -145t48 -242h-164q-8 245 -178 245q-120 0 -148 -62t-28 -95q0 -74 59 -181h231v-106h-176q14 -40 14 -73q0 -112 -82 -203q18 6 69 6t122.5 -22.5t114.5 -22.5t114 61l90 -124q-92 -78 -233 -78q-57 0 -145 26t-140 27
q-52 0 -141 -53l-97 122q112 65 138 132.5t26 111.5t-28 90h-125v106h63q-46 89 -46 172z" />
    <glyph glyph-name="yen" unicode="&#xa5;" horiz-adv-x="825" 
d="M131 203v129h197v49l-16 31h-181v126h111l-244 462h207l215 -441l206 441h202l-242 -462h116v-126h-184l-16 -31v-49h200v-129h-200v-203h-174v203h-197z" />
    <glyph glyph-name="copyright" unicode="&#xa9;" horiz-adv-x="1114" 
d="M561 172q-59 0 -145 35.5t-120 126t-34 158.5q0 139 82.5 227t233.5 88t198.5 -84.5t57.5 -142.5h-111q-19 86 -72 107t-90 21q-81 0 -130.5 -60t-49.5 -154q0 -142 73.5 -181t109.5 -39q63 0 106.5 38t52.5 98h113q-39 -171 -127.5 -204.5t-147.5 -33.5zM267 195
q113 -119 285 -119t288 119t116 298t-115 297t-288 118t-286 -118t-113 -297t113 -298zM1075 491q0 -220 -152 -367.5t-369 -147.5t-369 149t-152 366t153.5 369t367.5 152t367.5 -150.5t153.5 -370.5z" />
    <glyph glyph-name="guillemotleft" unicode="&#xab;" horiz-adv-x="643" 
d="M338 461l219 172v-141l-135 -107l135 -105v-143l-219 175v149zM66 461l218 172v-141l-132 -107l132 -105v-143l-218 175v149z" />
    <glyph glyph-name="registered" unicode="&#xae;" horiz-adv-x="1108" 
d="M572 768q104 0 154 -40.5t50 -129.5t-47 -120.5t-75 -39.5l138 -221h-132l-134 209h-59v-209h-121v551h226zM534 526q124 0 124 70t-101 70h-90v-140h67zM267 195q113 -119 285 -119t288 119t116 298t-115 297t-288 118t-286 -118t-113 -297t113 -298zM1075 491
q0 -220 -152 -367.5t-369 -147.5t-369 149t-152 366t153.5 369t367.5 152t367.5 -150.5t153.5 -370.5z" />
    <glyph glyph-name="guillemotright" unicode="&#xbb;" horiz-adv-x="643" 
d="M305 312l-219 -175v143l135 105l-135 107v141l219 -172v-149zM578 312l-220 -175v143l134 105l-134 107v141l220 -172v-149z" />
    <glyph glyph-name="onequarter" unicode="&#xbc;" horiz-adv-x="1167" 
d="M1116 238v-111h-82v-127h-118v127h-262v103l286 378h94v-370h82zM916 238v168l-130 -168h130zM340 977v-607h-119v408q-45 -22 -153 -26v112q104 7 132 43.5t36 69.5h104zM950 1000l-571 -1000h-129l571 1000h129z" />
    <glyph glyph-name="onehalf" unicode="&#xbd;" horiz-adv-x="1167" 
d="M340 977v-607h-119v408q-45 -22 -153 -26v112q104 7 132 43.5t36 69.5h104zM908 1000l-572 -1000h-129l571 1000h130zM684 364q0 105 61 173.5t157 68.5t158 -51t62 -135q0 -133 -137 -206t-164 -108h293v-106h-444q10 155 79 201.5t103 66.5q78 46 111 76t33 72
q0 82 -88 82q-72 0 -84.5 -54t-12.5 -80h-127z" />
    <glyph glyph-name="threequarters" unicode="&#xbe;" horiz-adv-x="1167" 
d="M1030 1000l-574 -1000h-126l571 1000h129zM1136 238v-111h-82v-127h-118v127h-262v103l286 378h94v-370h82zM936 238v168l-129 -168h129zM203 582q4 -111 84 -111q58 0 90.5 21.5t32.5 58.5q0 84 -107 84h-39v103h29q60 0 76 24t16 48.5t-24 42t-60 17.5q-86 0 -86 -106
h-127q13 157 88.5 186t123.5 29q97 0 153.5 -45.5t56.5 -119.5t-62 -118q88 -44 88 -139t-68.5 -145t-164.5 -50q-160 0 -194.5 82t-34.5 138h129z" />
    <glyph glyph-name="multiply" unicode="&#xd7;" horiz-adv-x="717" 
d="M272 375l-250 266l94 90l244 -260l246 260l94 -90l-250 -266l250 -265l-94 -90l-246 260l-244 -260l-94 90z" />
    <glyph glyph-name="divide" unicode="&#xf7;" horiz-adv-x="833" 
d="M782 442v-133h-733v133h733zM312 650q0 21 12 49.5t42 42.5t51 14q41 0 73 -32t32 -64q0 -54 -32 -84.5t-62 -30.5q-31 0 -50.5 8.5t-34 22.5t-23 33.5t-8.5 40.5zM312 100q0 22 12 51.5t42 43.5t51 14q42 0 73.5 -33t31.5 -64q0 -50 -41 -90t-105 -14t-64 92z" />
    <glyph glyph-name="kokaithai" unicode="&#xe01;" horiz-adv-x="884" 
d="M260 452v-452h-168v454q0 90 -70 128q38 160 189 234q88 42 185 42q96 0 154 -14q208 -50 249 -250q8 -44 8 -88v-506h-170v520q0 130 -115 177q-42 17 -99 17q-143 1 -203 -78q-16 -20 -20 -38q60 -53 60 -146z" />
    <glyph glyph-name="khokhaithai" unicode="&#xe02;" horiz-adv-x="778" 
d="M18 704v136h256l136 -656l135 656h174l-187 -840h-248l-157 704h-109z" />
    <glyph glyph-name="khokhuatthai" unicode="&#xe03;" horiz-adv-x="798" 
d="M237 622q-156 0 -196 136q-11 34 -11 82h160q0 -56 32 -75q12 -7 26 -7q27 0 43 22t16 60h164v-174q2 -44 -22 -75q-23 -31 -45 -52t-46 -45q-64 -64 -74 -110q-4 -18 -6 -40v-53q0 -73 37 -117q37 -43 103 -45q131 0 135 149v562h168v-574q0 -140 -87 -213t-217 -73
q-131 0 -221 76t-90 210v39q0 101 16 137q24 54 85 99t75 67q14 21 19 37q-34 -23 -64 -23z" />
    <glyph glyph-name="khokhwaithai" unicode="&#xe04;" horiz-adv-x="893" 
d="M246 0h-168v486q0 226 143 317q84 55 227 55t224 -55q143 -91 143 -317v-486h-170v504q0 123 -80 172q-47 32 -111 32q-111 0 -160 -60q-48 -60 -48 -144v-113q46 66 103 93q57 28 155 28v-148q-143 0 -203 -74q-55 -64 -55 -206v-84z" />
    <glyph glyph-name="khokhonthai" unicode="&#xe05;" horiz-adv-x="901" 
d="M246 510v-119q46 66 103 93q57 28 155 28v-148q-143 0 -203 -74q-55 -64 -55 -206v-84h-168v494q0 253 174 331q41 18 96 27l102 -110l97 110q277 -40 277 -358v-494h-170v510q0 83 -37 143q-13 20 -33 31l-105 -108q-13 -13 -29 -13t-30 13l-108 108q-66 -33 -66 -174z
" />
    <glyph glyph-name="khorakhangthai" unicode="&#xe06;" horiz-adv-x="891" 
d="M231 624q-151 0 -190 134q-11 34 -11 82h160q0 -56 32 -75q12 -7 26 -7q27 0 43 22t16 60h164v-172q0 -80 -76 -149q-21 -20 -43 -39t-36 -33q-38 -38 -38 -119q0 -126 128 -180q77 -33 140 -10q97 36 97 140v562h170v-547q-2 -153 -63 -225q-71 -86 -235 -86t-245 108
l-2 -90h-162v299q0 100 17 139t40 61q24 21 41 37q16 16 28 26q46 40 57 79q-34 -17 -58 -17z" />
    <glyph glyph-name="ngonguthai" unicode="&#xe07;" horiz-adv-x="661" 
d="M416 164v544h-117v132h285v-650q0 -106 -59 -158t-159 -52q-159 0 -212 160l-134 364h176l130 -348q12 -33 38 -33t39 12t13 29z" />
    <glyph glyph-name="chochanthai" unicode="&#xe08;" horiz-adv-x="811" 
d="M90 372v134h244l112 -330q116 269 119 363q1 94 -41 135t-119 41q-77 -1 -116 -31t-55 -100h-185q35 196 222 253q63 19 121 19t98 -6q196 -29 241 -185q14 -44 13 -102q0 -138 -197 -563h-211l-133 372h-113z" />
    <glyph glyph-name="chochingthai" unicode="&#xe09;" horiz-adv-x="884" 
d="M383 -20q-246 0 -291 193q-14 60 -14 132v164h168v-180q0 -109 92 -143q30 -11 77 -11q100 0 161 67t61 181v125q4 132 -105 183q-40 17 -97 17q-147 0 -187 -90q-12 -24 -16 -48h-174q21 197 212 264q68 24 152 24q282 0 354 -188q31 -75 31 -178v-492h-162l-4 94
q-86 -114 -258 -114z" />
    <glyph glyph-name="chochangthai" unicode="&#xe0a;" horiz-adv-x="790" 
d="M192 852q156 0 192 -103q29 -78 -26 -168q-14 -23 -50 -73t-48 -77t-12 -85v-55q0 -74 41 -117t108 -44t95 24q50 46 50 124v56q0 86 -35 111t-120 28v123q139 0 163 137q8 47 9 107h170q-2 -112 -24 -165q-40 -99 -119 -137q56 -17 77 -44q39 -51 43 -98q4 -46 4 -62
v-68q0 -142 -95 -217q-83 -69 -216 -69t-226 75t-93 211v68q0 88 15 126t60 92t54 76t13 40t-11 35q-14 16 -44 16t-132 -35v131q107 37 157 37z" />
    <glyph glyph-name="sosothai" unicode="&#xe0b;" horiz-adv-x="841" 
d="M780 840q0 -234 -143 -302q53 -18 77 -46q50 -59 50 -160v-66q0 -142 -92 -214t-222 -72q-131 0 -225 75t-94 211q-2 109 12 168t72 115t71 98q-34 -25 -64 -25q-121 0 -171 78q-37 52 -37 140h160q0 -54 33 -75q11 -7 25 -7q26 0 43 22q16 22 16 60h163v-174
q0 -69 -59 -130t-71 -87q-23 -54 -23 -143q0 -133 91 -166q54 -21 98 -8q43 12 62 30q42 39 42 116v54q0 116 -87 135q-27 5 -61 6v123q90 6 129 67q37 53 37 177h168z" />
    <glyph glyph-name="chochoethai" unicode="&#xe0c;" horiz-adv-x="1325" 
d="M92 452q0 92 -70 130q38 160 185 234q85 42 175 42q274 0 357 -181q33 -72 33 -173v-136q0 -162 108 -221q34 -18 86 -18q111 0 111 149v562h170v-547q0 -157 -60 -235t-200 -78q-139 0 -221 110l-2 -90h-162v520q0 125 -105 176q-37 18 -89 18q-92 1 -143 -33
q-51 -35 -65 -83q60 -43 60 -148v-313h90v-137h-258v452z" />
    <glyph glyph-name="yoyingthai" unicode="&#xe0d;" horiz-adv-x="1325" 
d="M735 0q32 -112 171 -112q87 0 131 62q45 62 45 146v54q-92 -113 -212 -113q-215 -3 -255 186q-13 59 -13 137v148q0 131 -105 182q-37 18 -89 18q-135 0 -187 -76q-15 -22 -21 -44q60 -43 60 -152v-299h90v-137h-258v438q0 96 -70 134q28 117 121 202q94 84 259 84
q256 0 337 -188q33 -75 33 -178v-148q0 -154 117 -154q87 0 136 68q50 68 52 180v402h170v-666q0 -193 -69 -286q-72 -104 -204 -131q-42 -7 -92 -7q-180 0 -268 139q-28 47 -38 111h159z" />
    <glyph glyph-name="dochadathai" unicode="&#xe0e;" horiz-adv-x="919" 
d="M295 0h-250v137h82v317q0 87 -69 128q38 161 188 234q88 42 184 42q349 0 403 -264q9 -44 9 -88v-795h-164q-32 45 -76 70t-127 25q-128 0 -239 -120v162q89 94 239 94q89 0 165 -34q20 -8 32 -16v628q0 130 -116 177q-42 17 -99 17q-98 1 -155 -37t-66 -79
q57 -50 59 -146v-452z" />
    <glyph glyph-name="topatakthai" unicode="&#xe0f;" horiz-adv-x="919" 
d="M127 454q0 87 -69 128q38 161 188 234q88 42 184 42q349 0 403 -264q9 -44 9 -88v-795h-168q-13 62 -54 89q-16 10 -36 10t-36 -10q-46 -29 -46 -89h-142q0 60 -38 89q-16 12 -36 12t-33 -10q-36 -26 -36 -91h-135q0 111 58 170t144 59t140 -77q55 71 133 71
q77 0 115 -38v624q0 130 -116 177q-42 17 -99 17q-98 1 -155 -37t-66 -79q57 -50 59 -146v-452h-250v137h82v317z" />
    <glyph glyph-name="thothanthai" unicode="&#xe10;" horiz-adv-x="807" 
d="M90 375v131h244l112 -328q116 269 119 362q1 93 -41 134t-128 41q-135 0 -168 -139h-185q20 127 118 205q97 77 251 77q73 0 141 -20q56 10 67 86h181q-5 -132 -111 -174q58 -71 54 -187q0 -138 -197 -563h-211l-133 375h-113zM268 -223q-48 0 -49 -72h-127
q-7 136 92 185q36 16 83 16t85 -41q43 41 89 41t77 -27v57h170v-231h-166q-8 72 -57 72q-32 3 -47 -43q-2 -13 -2 -29h-96q0 51 -30 66q-10 6 -22 6z" />
    <glyph glyph-name="thonangmonthothai" unicode="&#xe11;" horiz-adv-x="891" 
d="M471 780q111 80 216 80t121 -108q5 -34 5 -76v-676h-170v622q-1 16 -1 31q0 47 -20 47q-69 0 -258 -221q-68 -76 -78 -110q-10 -35 -10 -80v-289h-170v272q0 99 10 125q27 71 96 138q69 66 79 83t12 29q-50 -25 -73 -25q-76 0 -118 31q-82 60 -82 187h160q0 -82 58 -82
t59 82h164v-60z" />
    <glyph glyph-name="thophuthaothai" unicode="&#xe12;" horiz-adv-x="1360" 
d="M246 534v-308q28 36 62 75t67 78h-59v127h243v-117l-321 -389h-160v518q0 185 80 251t182 81l102 -106l96 106q200 -29 249 -181q20 -62 20 -151v-150q3 -164 108 -221q35 -18 72 -18q97 0 117 79q8 28 8 70v562h170v-547q0 -157 -60 -235t-200 -78q-139 0 -221 110v-90
h-164v534q6 123 -59 152l-107 -102q-11 -12 -29 -12t-30 12l-109 104q-57 -34 -57 -154z" />
    <glyph glyph-name="nonenthai" unicode="&#xe13;" horiz-adv-x="1325" 
d="M772 278q0 -149 117 -149q87 0 137 66q49 66 51 173v472h170v-840h-163l-2 90q-83 -110 -212 -110q-215 0 -255 180q-13 58 -13 133v227q0 125 -105 176q-37 18 -89 19q-91 2 -143 -33t-65 -84q60 -43 60 -148v-313h90v-137h-258v452q0 92 -70 130q38 160 185 234
q85 42 175 42q274 0 357 -181q33 -72 33 -173v-226z" />
    <glyph glyph-name="dodekthai" unicode="&#xe14;" horiz-adv-x="901" 
d="M322 379v129h254v-119l-338 -389h-160v502q0 356 372 356q264 0 342 -184q32 -75 32 -172v-502h-170v518q0 133 -102 179q-40 18 -102 18q-114 0 -164 -64q-40 -47 -40 -133v-299l141 160h-65z" />
    <glyph glyph-name="totaothai" unicode="&#xe15;" horiz-adv-x="907" 
d="M246 520v-299l141 158h-65v127h256v-117l-340 -389h-160v506q0 300 272 344l104 -104l97 104q279 -40 279 -344v-506h-168v520q0 76 -42 136q-14 20 -32 30l-104 -102q-16 -12 -32 -12t-28 12l-108 104q-70 -33 -70 -168z" />
    <glyph glyph-name="thothungthai" unicode="&#xe16;" horiz-adv-x="868" 
d="M260 452v-315h90v-137h-258v454q0 90 -70 128q28 117 122 197q95 79 266 79q267 0 348 -181q32 -69 32 -171v-506h-168v520q0 132 -109 177q-41 17 -98 18q-141 2 -196 -80q-15 -21 -19 -37q60 -38 60 -146z" />
    <glyph glyph-name="thothahanthai" unicode="&#xe17;" horiz-adv-x="884" 
d="M244 738q89 122 256 122q166 0 243 -90q62 -78 64 -236v-534h-168v551q0 103 -93 143q-28 10 -76 10q-105 0 -163 -68q-59 -68 -59 -180v-456h-170v840h164z" />
    <glyph glyph-name="thothongthai" unicode="&#xe18;" horiz-adv-x="839" 
d="M246 656q0 -45 185 -104q151 -43 192 -65q78 -41 112 -96q33 -55 33 -135t-29 -130q-82 -142 -319 -142q-236 0 -314 142q-28 50 -28 120v176h168v-176q0 -89 113 -115q31 -6 60 -6q74 0 117 23q60 32 60 96t-38 95t-143 64t-159 51q-181 61 -178 193q2 68 52 123
q86 86 266 86q248 0 323 -150q27 -52 27 -128h-170q-4 139 -167 139t-163 -61z" />
    <glyph glyph-name="nonuthai" unicode="&#xe19;" horiz-adv-x="884" 
d="M383 -20q-246 0 -291 193q-14 60 -14 132v535h168v-551q0 -109 92 -143q30 -11 77 -11q100 0 161 67t61 181v457h170v-840h-164l-2 102q-92 -122 -258 -122z" />
    <glyph glyph-name="bobaimaithai" unicode="&#xe1a;" horiz-adv-x="884" 
d="M807 350q-1 -368 -365 -368t-364 372v486h168v-502q0 -83 32 -126q32 -44 70 -62t94 -19q104 0 150 61q45 61 45 146v502h170v-490z" />
    <glyph glyph-name="poplathai" unicode="&#xe1b;" horiz-adv-x="884" 
d="M807 350q-1 -368 -365 -368t-364 372v486h168v-502q0 -83 32 -126q32 -44 70 -62t94 -19q104 0 150 61q45 61 45 146v868h170v-856z" />
    <glyph glyph-name="phophungthai" unicode="&#xe1c;" horiz-adv-x="948" 
d="M78 238v602h278v-138h-110v-438q0 -139 72 -139q67 0 70 110q1 33 1 70v133h168v-133q0 -91 10 -121q20 -59 70 -59q65 0 65 139v576h168v-602q0 -191 -125 -239q-39 -15 -87 -15q-124 0 -185 96q-44 -96 -176 -96q-156 0 -203 140q-16 48 -16 114z" />
    <glyph glyph-name="fofathai" unicode="&#xe1d;" horiz-adv-x="948" 
d="M78 238v602h278v-138h-110v-438q0 -139 72 -139q67 0 70 110q1 33 1 70v133h168v-133q0 -91 10 -121q20 -59 70 -59q65 0 65 139v942h168v-968q0 -191 -125 -239q-39 -15 -87 -15q-124 0 -185 96q-44 -96 -176 -96q-156 0 -203 140q-16 48 -16 114z" />
    <glyph glyph-name="phophanthai" unicode="&#xe1e;" horiz-adv-x="1112" 
d="M649 840l131 -596l121 596h185l-214 -840h-184l-135 596l-129 -596h-186l-214 840h187l123 -602l129 602h186z" />
    <glyph glyph-name="fofanthai" unicode="&#xe1f;" horiz-adv-x="1112" 
d="M649 840l131 -596l182 962h185l-275 -1206h-184l-135 596l-129 -596h-186l-214 840h187l123 -602l129 602h186z" />
    <glyph glyph-name="phosamphaothai" unicode="&#xe20;" horiz-adv-x="919" 
d="M127 454q0 87 -69 128q38 161 188 234q88 42 184 42q349 0 403 -264q9 -44 9 -88v-506h-170v520q0 130 -116 177q-42 17 -99 17q-98 1 -155 -37t-66 -79q57 -50 59 -146v-452h-250v137h82v317z" />
    <glyph glyph-name="momathai" unicode="&#xe21;" horiz-adv-x="884" 
d="M78 0v840h170v-457q0 -115 58 -177q62 -71 176 -71q70 0 113 41q44 41 44 113v551h168v-535q-2 -159 -70 -242t-235 -83q-168 0 -258 122l-2 -102h-164z" />
    <glyph glyph-name="yoyakthai" unicode="&#xe22;" horiz-adv-x="862" 
d="M240 622q0 -86 110 -96h82v-141h-82q-54 -2 -82 -25t-28 -76q0 -86 54 -123q54 -38 114 -38q109 1 159 49q49 47 49 152v516h168v-545q0 -149 -102 -232t-254 -83q-209 0 -310 124q-54 66 -54 160q0 150 94 190q-92 52 -92 172t82 172q63 42 157 42h127v-144h-92
q-100 0 -100 -74z" />
    <glyph glyph-name="roruathai" unicode="&#xe23;" horiz-adv-x="745" 
d="M528 234q0 49 -42 76q-26 18 -155 69t-181 86q-84 58 -84 161q0 149 152 206q64 24 135 24q151 0 232 -62t89 -212h-168q-14 137 -138 137q-81 0 -116 -49q-12 -18 -12 -49t40 -56t117 -52q186 -65 244 -123q42 -40 49 -81q8 -41 8 -73q0 -252 -326 -252q-223 0 -298 158
q-27 56 -31 136h170q9 -120 98 -144q30 -8 70 -9q147 6 147 109z" />
    <glyph glyph-name="ruthai" unicode="&#xe24;" horiz-adv-x="868" 
d="M260 452v-315h90v-137h-258v454q0 90 -70 128q28 117 122 197q95 79 266 79q267 0 348 -181q32 -69 32 -171v-778h-168v792q0 132 -109 177q-41 17 -98 18q-141 2 -196 -80q-15 -21 -19 -37q60 -38 60 -146z" />
    <glyph glyph-name="lolingthai" unicode="&#xe25;" horiz-adv-x="864" 
d="M448 715q-183 0 -190 -160h-172q6 158 107 229q101 72 284 72q182 0 259 -97q50 -56 50 -153v-606h-168v408q-64 -24 -131 -32q-67 -7 -109 -14q-152 -25 -152 -125q0 -37 13 -58q38 -62 140 -58q35 0 98 14v-133q-126 -34 -241 -8q-114 27 -159 117q-24 46 -24 104
q0 148 101 208q80 50 274 77q36 6 70 10q120 16 120 82q0 105 -109 119q-31 4 -61 4z" />
    <glyph glyph-name="luthai" unicode="&#xe26;" horiz-adv-x="919" 
d="M127 454q0 87 -69 128q38 161 188 234q88 42 184 42q349 0 403 -264q9 -44 9 -88v-778h-170v792q0 130 -116 177q-42 17 -99 17q-98 1 -155 -37t-66 -79q57 -50 59 -146v-452h-250v137h82v317z" />
    <glyph glyph-name="wowaenthai" unicode="&#xe27;" horiz-adv-x="786" 
d="M56 542q6 143 94 231q87 87 246 87t249 -117t90 -323q0 -316 -197 -407q-67 -31 -148 -31t-140 23q-181 71 -194 294h170q9 -132 96 -166q27 -10 59 -10q176 0 180 297q-4 299 -180 299q-102 0 -140 -97q-13 -34 -15 -80h-170z" />
    <glyph glyph-name="sosalathai" unicode="&#xe28;" horiz-adv-x="893" 
d="M815 486v-486h-170v504q0 123 -80 172q-47 32 -111 32q-111 0 -160 -60q-48 -60 -48 -144v-113q46 66 103 93q57 28 155 28v-148q-143 0 -203 -74q-55 -64 -55 -206v-84h-168v486q0 226 143 317q84 55 202 55t184 -24q60 3 71 90h180q-6 -140 -116 -184q73 -95 73 -254z
" />
    <glyph glyph-name="sorusithai" unicode="&#xe29;" horiz-adv-x="884" 
d="M246 326q0 -201 196 -201t195 201v65h-244v195h160v-60h84v314h170v-314h75v-135h-75v-51q0 -223 -136 -306q-87 -52 -229 -52q-321 0 -358 269q-6 44 -6 89v500h168v-514z" />
    <glyph glyph-name="sosuathai" unicode="&#xe2a;" horiz-adv-x="864" 
d="M786 606v-606h-168v412q-62 -28 -129 -34q-69 -6 -111 -14q-152 -27 -152 -125q0 -37 13 -58q38 -62 140 -58q35 0 98 14v-135q-122 -33 -243 -6q-181 44 -181 227q0 150 126 215q75 38 145 49t110 16q87 11 135 28q49 17 49 59q0 74 -46 100q-46 25 -124 25
q-183 0 -190 -158h-172q6 158 107 229q101 72 266 72q77 0 149 -20q70 8 76 86h180q0 -92 -64 -148q-22 -20 -52 -30q38 -59 38 -140z" />
    <glyph glyph-name="hohipthai" unicode="&#xe2b;" horiz-adv-x="866" 
d="M246 840v-295l342 295h246l-187 -158q120 -50 136 -199q5 -47 5 -100v-383h-168v400q0 104 -52 150q-19 18 -46 24l-276 -236v-338h-168v840h168z" />
    <glyph glyph-name="lochulathai" unicode="&#xe2c;" horiz-adv-x="1112" 
d="M850 619q0 35 -5 51q-16 52 -97 51v119q85 4 118 27q58 38 66 106h192q-23 -167 -158 -203q44 -38 53 -95t-7 -116l-138 -559h-186l-150 482l-145 -482h-186l-187 840h189l103 -617l142 485h174l150 -487q8 42 16 82q8 41 15 79t24 121q17 82 17 116z" />
    <glyph glyph-name="oangthai" unicode="&#xe2d;" horiz-adv-x="852" 
d="M426 715q-171 0 -196 -150h-179q28 136 119 215q97 80 243 80t237 -59q159 -110 159 -379t-159 -379q-88 -61 -222 -61q-262 0 -342 218q-37 93 -37 218v61h379v-133h-205q3 -149 125 -207q87 -38 167 3q119 61 122 276q-2 297 -211 297z" />
    <glyph glyph-name="honokhukthai" unicode="&#xe2e;" horiz-adv-x="848" 
d="M426 862q84 0 148 -24q60 8 65 86h182q-2 -52 -23 -86q-39 -65 -88 -86q99 -124 99 -332q0 -265 -159 -375q-88 -61 -222 -61q-262 0 -342 218q-37 93 -37 218v59h379v-131h-205q2 -101 61 -162t150 -62t146 76q55 78 57 220q-2 295 -211 295q-160 -2 -196 -150h-179
q44 212 228 276q63 21 147 21z" />
    <glyph glyph-name="paiyannoithai" unicode="&#xe2f;" horiz-adv-x="868" 
d="M622 626v214h168v-840h-168v391q-79 -67 -214 -67q-256 0 -326 162q-22 51 -22 105q0 138 92 197q81 52 190 52h135v-142h-135q-108 0 -108 -100q0 -91 85 -123q33 -12 83 -12q220 -2 220 163z" />
    <glyph glyph-name="saraathai" unicode="&#xe30;" horiz-adv-x="506" 
d="M78 131v191h156v-62h200v-129h-356zM78 547v193h156v-62h200v-131h-356z" />
    <glyph glyph-name="maihanakatthai" unicode="&#xe31;" 
d="M-528 968v202h156v-72h402v-130h-558z" />
    <glyph glyph-name="saraaathai" unicode="&#xe32;" horiz-adv-x="715" 
d="M22 563q0 134 93 214q93 79 219 79q209 0 280 -163q23 -55 23 -130v-563h-168v534q-2 174 -135 174q-58 0 -94 -36t-42 -109h-176z" />
    <glyph glyph-name="saraamthai" unicode="&#xe33;" horiz-adv-x="715" 
d="M-340 1112q0 68 47 114t111 46t114 -47q48 -48 48 -113q0 -64 -48 -112t-112 -48q-66 0 -113 46t-47 114zM-238 1112q0 -12 5 -22t13 -18t18 -13t22 -5q22 0 38 16t17 35t-3 29t-12 18t-18 13t-22 5t-22 -5t-18 -13t-13 -18t-5 -22zM22 563q0 134 93 214q93 79 219 79
q209 0 280 -163q23 -55 23 -130v-563h-168v534q-2 174 -135 174q-58 0 -94 -36t-42 -109h-176z" />
    <glyph glyph-name="saraithai" unicode="&#xe34;" 
d="M-78 1100v-134h-735l67 134h668z" />
    <glyph glyph-name="saraiithai" unicode="&#xe35;" 
d="M-238 1100v118h160v-252h-735l67 134h508z" />
    <glyph glyph-name="sarauethai" unicode="&#xe36;" 
d="M-227 1164q-33 -13 -33 -44q0 -30 16 -44t32 -13q16 0 26 4q32 13 32 49t-32 48q-10 4 -20 4t-21 -4zM-354 1114q0 96 89 136q27 12 57 12t58 -12q90 -39 90 -136t-90 -136q-27 -12 -57 -12h-606l67 134h392v14z" />
    <glyph glyph-name="saraueethai" unicode="&#xe37;" 
d="M-456 1100v118h151v-118h75v118h152v-252h-735l67 134h290z" />
    <glyph glyph-name="sarauthai" unicode="&#xe38;" 
d="M-236 -410v184h-73v130h231v-314h-158z" />
    <glyph glyph-name="sarauuthai" unicode="&#xe39;" 
d="M-375 -211q-1 -82 69 -82t70 82v115h158v-115q0 -149 -121 -196q-43 -17 -105 -17q-169 0 -214 118q-14 36 -16 80h-74v130h233v-115z" />
    <glyph glyph-name="phinthuthai" unicode="&#xe3a;" 
d="M-286 -197q0 92 69 119q21 8 45 8t53 -12t44 -45t15 -69t-24 -59q-42 -42 -89 -42t-80 31q-33 32 -33 69z" />
    <glyph glyph-name="PUCR2005" unicode="&#xe3e;" 
 />
    <glyph glyph-name="bahtthai" unicode="&#xe3f;" horiz-adv-x="952" 
d="M551 590q139 15 139 127t-81 125q-26 4 -58 6v-258zM396 588v260h-130v-260h130zM396 150v286h-130v-286h130zM551 150h14q120 0 155 88q12 28 12 66t-16 62q-41 66 -165 70v-286zM864 746q0 -143 -106 -214q150 -67 150 -235q0 -71 -28 -124q-93 -173 -296 -173h-33v-94
h-155v94h-306v1000h306v88h155v-90q221 -11 287 -132q26 -48 26 -120z" />
    <glyph glyph-name="saraethai" unicode="&#xe40;" horiz-adv-x="358" 
d="M94 0v840h170v-840h-170z" />
    <glyph glyph-name="saraaethai" unicode="&#xe41;" horiz-adv-x="641" 
d="M377 0v840h170v-840h-170zM94 0v840h170v-840h-170z" />
    <glyph glyph-name="saraothai" unicode="&#xe42;" horiz-adv-x="426" 
d="M289 137h88v-137h-256v966q0 56 -36 90t-91 34l32 128h410l76 -134h-262q41 -49 39 -113v-834z" />
    <glyph glyph-name="saraaimaimuanthai" unicode="&#xe43;" horiz-adv-x="426" 
d="M256 1071q0 51 -61 51t-79 -74q-6 -24 -6 -52h-157q0 125 70 193q70 67 169 67q149 0 200 -96q18 -34 18 -70q0 -68 -49 -117t-58 -71t-11 -40t-2 -36t-1 -34v-655h88v-137h-256v792q0 75 17 123t67 89q51 42 51 67z" />
    <glyph glyph-name="saraaimaimalaithai" unicode="&#xe44;" horiz-adv-x="426" 
d="M121 971q0 66 39 113h-262l76 134h409l33 -128q-84 0 -117 -72q-10 -24 -10 -52v-829h88v-137h-256v971z" />
    <glyph glyph-name="lakkhangyaothai" unicode="&#xe45;" horiz-adv-x="715" 
d="M22 563q0 134 93 214q93 79 219 79q209 0 280 -163q23 -55 23 -130v-835h-168v806q-2 174 -135 174q-58 0 -94 -36t-42 -109h-176z" />
    <glyph glyph-name="maiyamokthai" unicode="&#xe46;" horiz-adv-x="819" 
d="M342 430v-148h-35q-173 0 -231 134q-20 46 -20 110q0 142 50 212q61 88 210 112l88 -92l80 90q161 -14 216 -118q42 -84 42 -226v-774h-170v790q0 104 -16 131q-16 28 -34 33l-90 -94q-10 -12 -30 -12t-30 12l-90 92q-68 -43 -61 -147q7 -105 86 -105h35z" />
    <glyph glyph-name="maitaikhuthai" unicode="&#xe47;" 
d="M-432 1048q-38 -69 -146 -69q-36 0 -71 17q-93 46 -93 153q0 106 64 156q64 49 160 49h410v-121h-396q-54 2 -74 -26q-14 -15 -14 -47q0 -31 17 -43q17 -11 33 -11q54 0 50 74h115q-4 -74 49 -74q38 0 41 44q0 14 -2 30h127q15 -99 -30 -150q-44 -51 -117 -51
q-39 0 -73 20t-50 49z" />
    <glyph glyph-name="maiekthai" unicode="&#xe48;" 
d="M-236 1558h156v-245h-156v245z" />
    <glyph glyph-name="maithothai" unicode="&#xe49;" 
d="M-389 1310v126h-78v124h211v-124q118 0 160 77q12 21 12 47h146q0 -104 -88 -177t-246 -73h-117z" />
    <glyph glyph-name="maitrithai" unicode="&#xe4a;" 
d="M-344 1403q-26 0 -26 -67v-26h-126q-8 107 36 164q38 54 98 54t96 -52q33 52 98 52q90 0 112 -90q40 50 40 118h132q0 -107 -84 -196q-40 -43 -83 -50h-107v26q0 32 -9 50q-9 17 -17 17q-27 3 -27 -93h-109v30q-4 66 -24 63z" />
    <glyph glyph-name="maichattawathai" unicode="&#xe4b;" 
d="M-82 1415v-105h-152v105h-118v121h118v102h152v-102h119v-121h-119z" />
    <glyph glyph-name="thanthakhatthai" unicode="&#xe4c;" 
d="M-41 1336q-155 0 -155 -122h-152q0 117 80 181q80 63 227 67v-126z" />
    <glyph glyph-name="nikhahitthai" unicode="&#xe4d;" 
d="M-340 1112q0 68 47 114t111 46t114 -47q48 -48 48 -113q0 -64 -48 -112t-112 -48q-66 0 -113 46t-47 114zM-238 1112q0 -12 5 -22t13 -18t18 -13t22 -5q22 0 38 16t17 35t-3 29t-12 18t-18 13t-22 5t-22 -5t-18 -13t-13 -18t-5 -22z" />
    <glyph glyph-name="yamakkanthai" unicode="&#xe4e;" 
d="M2 1198q-66 0 -87 -19t-21 -63v-34h-42q-71 0 -84 -66q-4 -22 -4 -48h-151q0 131 83 194q28 22 68 32q31 133 238 133v-129z" />
    <glyph glyph-name="fongmanthai" unicode="&#xe4f;" horiz-adv-x="1038" 
d="M506 740q-56 0 -114 -25t-102 -68q-94 -96 -94 -225t93 -225q93 -97 226 -97t227 94t94 227q0 132 -94 226q-59 59 -140 81q-40 12 -96 12zM504 295q93 0 126 77q10 24 10 50t-10 48q-34 75 -112 75q-53 0 -91 -37t-38 -86q0 -50 38 -89q37 -38 77 -38zM282 422
q0 48 19 89q40 88 126 124q43 19 91 19t89 -18q85 -37 122 -125q19 -41 19 -89t-18 -90q-39 -89 -123 -125q-41 -19 -89 -19t-91 19q-87 37 -126 125q-19 42 -19 90zM74 418q0 184 131 312t313 128q116 0 221 -60q148 -84 202 -263q15 -56 15 -117q0 -181 -128 -312
q-78 -78 -194 -113q-56 -15 -117 -15q-118 0 -223 60q-154 88 -204 263q-16 56 -16 117z" />
    <glyph glyph-name="zerothai" unicode="&#xe50;" horiz-adv-x="911" 
d="M684 365q0 118 -63 178q-63 59 -165 59q-159 0 -210 -131q-18 -47 -18 -106q0 -111 62 -176q62 -66 166 -66q52 0 95 18q133 58 133 224zM60 345q0 111 27 181q83 216 369 216q189 0 292 -98q104 -98 104 -286q0 -187 -110 -281q-110 -93 -286 -93q-245 0 -342 161
q-54 89 -54 200z" />
    <glyph glyph-name="onethai" unicode="&#xe51;" horiz-adv-x="905" 
d="M349 234q-121 0 -202 63t-81 166q0 183 197 253q84 28 190 28q107 0 173 -27q117 -47 170 -124q52 -77 52 -186q0 -306 -256 -393q-81 -28 -194 -28t-177 15q-127 30 -215 109l134 109q90 -100 264 -100q118 -2 195 69t77 199q0 160 -127 207q-43 16 -95 16
q-97 0 -157 -40q-59 -40 -59 -95q0 -88 114 -108q42 -7 102 1v-122q-48 -12 -105 -12z" />
    <glyph glyph-name="twothai" unicode="&#xe52;" horiz-adv-x="1034" 
d="M488 207q-204 0 -204 243v40q0 93 69 164t183 86l82 -70l74 70q118 -6 196 -71q78 -64 78 -159v-192q0 -109 -54 -188q-101 -140 -330 -140h-82q-208 0 -319 93t-111 251v264q0 104 -74 104l26 142q150 0 198 -123q16 -43 16 -99v-302q0 -130 168 -172q56 -14 128 -15
q132 -2 202 46t67 114v203q0 80 -72 98l-111 -98l-110 92q-36 -3 -54 -51q-6 -15 -6 -37v-46q0 -84 24 -106q11 -10 30 -10h63v-131h-77z" />
    <glyph glyph-name="threethai" unicode="&#xe53;" horiz-adv-x="927" 
d="M66 266v121q0 250 172 321q56 24 126 32l101 -86l107 86q142 -7 216 -87q74 -79 74 -197v-456h-168v456q0 47 -32 88q-32 40 -68 40l-131 -107l-125 107q-69 -15 -94 -107q-10 -36 -10 -88v-125q4 -79 29 -104t63 -25t106 11v-140q-68 -23 -140 -15q-114 12 -158 65
q-68 82 -68 210z" />
    <glyph glyph-name="fourthai" unicode="&#xe54;" horiz-adv-x="927" 
d="M870 840q0 -256 -258 -256h-162q-156 0 -201 -93q-15 -30 -15 -69v-96q0 -82 49 -133t145 -51h10q-53 48 -53 118q0 176 250 176v-141q-88 3 -88 -49q0 -63 63 -96q17 -8 33 -8h227v-142h-460q-243 0 -316 176q-28 63 -28 144v80q0 244 234 307q74 20 165 20h141
q76 0 89 67q3 22 3 46h172z" />
    <glyph glyph-name="fivethai" unicode="&#xe55;" horiz-adv-x="927" 
d="M633 731q65 17 65 109h172q0 -254 -258 -254h-153q-225 0 -225 -162v-96q0 -129 107 -172q37 -14 87 -14h10q-53 48 -53 118q0 176 250 176v-141q-88 3 -88 -49q0 -63 63 -96q17 -8 33 -8h227v-142h-460q-242 0 -316 178q-28 63 -28 146v80q0 196 153 274q47 24 105 39
q-2 3 -2 11v14q0 95 94 139q28 12 76 12t95 -44q46 -44 46 -107v-11zM528 742q0 52 -53 52q-21 0 -35 -14t-14 -38t14 -39t37 -15t37 15t14 39z" />
    <glyph glyph-name="sixthai" unicode="&#xe56;" horiz-adv-x="940" 
d="M882 389v-51q0 -207 -181 -304q-94 -48 -197 -45q-266 8 -342 149q-24 46 -24 100q-2 204 253 204h70v-128h-63q-93 0 -93 -80q0 -68 106 -94q138 -33 231 42q70 57 70 154v49q0 211 -206 211q-164 -4 -328 -117l-158 252l134 78l82 -131q123 56 230 60q358 14 408 -259
q8 -44 8 -90z" />
    <glyph glyph-name="seventhai" unicode="&#xe57;" horiz-adv-x="1100" 
d="M68 330v55q0 239 172 319q56 26 126 34l78 -80l78 80q229 -28 268 -220q13 -59 13 -127v-57q-1 -17 -4 -70t-21 -98q74 58 74 192v264q0 164 126 206q39 14 87 14l25 -142q-38 0 -54 -24t-16 -80v-224q0 -156 -85 -257t-259 -121l-127 88q61 59 76 111q16 52 16 137v61
q0 158 -88 189l-107 -109l-110 113q-63 -16 -91 -113q-9 -35 -9 -84v-90q0 -71 18 -103q29 -50 63 -50h22q9 2 21 2t26 2l28 4l2 -142q-126 -38 -222 19q-95 57 -116 171q-10 55 -10 130z" />
    <glyph glyph-name="eightthai" unicode="&#xe58;" horiz-adv-x="925" 
d="M626 727q93 0 93 113h170q0 -260 -256 -260h-211q-133 0 -174 -100q-10 -28 -10 -58v-152q0 -45 29 -82t65 -46l137 108l133 -108q88 0 88 120q0 54 -22 70q-30 22 -63 22h-29v130h61q219 -8 219 -210q0 -149 -70 -217q-70 -67 -214 -67l-103 82l-103 -82q-141 8 -218 85
q-78 78 -78 195v130q0 235 207 304q68 23 159 23h190z" />
    <glyph glyph-name="ninethai" unicode="&#xe59;" horiz-adv-x="942" 
d="M66 328v59q0 180 64 267q64 86 214 86q95 0 138 -19q36 -26 54 -49l56 53q15 15 39 15h49q52 0 66 21t14 79h168q0 -155 -83 -207q-57 -37 -155 -37h-12q-14 0 -34 -20l-28 -27l268 -549h-176l-239 494q-51 102 -127 102q-108 0 -108 -205v-75q0 -179 102 -179l72 7
l22 -138q-38 -9 -106 -12q-115 -5 -187 69q-71 74 -71 265z" />
    <glyph glyph-name="angkhankhuthai" unicode="&#xe5a;" horiz-adv-x="1153" 
d="M908 840h167v-840h-167v840zM622 626v214h168v-840h-168v391q-79 -67 -214 -67q-256 0 -326 162q-22 51 -22 105q0 138 92 197q81 52 190 52h135v-142h-135q-108 0 -108 -100q0 -91 85 -123q33 -12 83 -12q220 -2 220 163z" />
    <glyph glyph-name="khomutthai" unicode="&#xe5b;" horiz-adv-x="1800" 
d="M307 609q-57 -69 -57 -179t74 -188t186 -78q161 0 238 145q67 123 67 328l111 61q64 -64 145 -192q13 18 29 42q49 73 98 140q28 -44 58 -89t59 -95l63 88h268l107 -164h-321q-42 -53 -75 -116q-33 -62 -49 -91q-59 123 -114 209q-61 -87 -125 -270q-58 171 -119 264
q-26 -187 -150 -305q-124 -119 -306 -119t-297 133t-115 295q0 163 99 290q99 126 267 126q103 0 183 -50q135 -93 135 -290l-158 -2q0 172 -143 182q-100 0 -158 -75z" />
    <glyph glyph-name="ZWSP" unicode="&#x200b;" 
 />
    <glyph glyph-name="endash" unicode="&#x2013;" horiz-adv-x="702" 
d="M702 469v-157h-702v157h702z" />
    <glyph glyph-name="emdash" unicode="&#x2014;" horiz-adv-x="1388" 
d="M1388 469v-157h-1388v157h1388z" />
    <glyph glyph-name="quoteleft" unicode="&#x2018;" horiz-adv-x="409" 
d="M108 620v170q0 153 71 188.5t120 35.5v-96q-82 0 -82 -109h82v-189h-191z" />
    <glyph glyph-name="quoteright" unicode="&#x2019;" horiz-adv-x="409" 
d="M301 1014v-170q0 -154 -70.5 -189t-120.5 -35v97q82 0 82 109h-82v188h191z" />
    <glyph glyph-name="quotedblleft" unicode="&#x201c;" horiz-adv-x="639" 
d="M354 620v170q0 153 71 188.5t120 35.5v-96q-82 0 -82 -109h82v-189h-191zM94 620v170q0 153 71 188.5t119 35.5v-96q-39 0 -60 -31t-21 -78h81v-189h-190z" />
    <glyph glyph-name="quotedblright" unicode="&#x201d;" horiz-adv-x="639" 
d="M284 1014v-170q0 -153 -70 -188.5t-120 -35.5v97q59 0 70.5 43.5t11.5 65.5h-82v188h190zM545 1014v-170q0 -154 -70.5 -189t-120.5 -35v97q59 0 70.5 43.5t11.5 65.5h-82v188h191z" />
    <glyph glyph-name="bullet" unicode="&#x2022;" horiz-adv-x="545" 
d="M39 428q0 46 18 86q36 79 124 119q41 19 89 19q93 0 165 -67q71 -67 71 -158t-71 -158q-71 -66 -165 -64q-48 -1 -89 17q-89 38 -124 120q-18 40 -18 86z" />
    <glyph glyph-name="Euro" unicode="&#x20ac;" horiz-adv-x="1112" 
d="M637 666v-124h-315q-2 -9 -2 -12v-32q0 -30 2 -42h315v-122h-291q71 -205 285 -205q176 0 214 104.5t42 162.5h176q-31 -306 -187 -360t-254 -54q-189 0 -306 95t-154 257h-129v122h111v86h-114v124h134q42 162 162.5 259t304.5 97q263 0 337 -129t89 -215h-181
q-37 194 -247 194t-285 -206h293z" />
    <glyph glyph-name="trademark" unicode="&#x2122;" horiz-adv-x="1376" 
d="M379 889v-496h-127v496h-180v111h487v-111h-180zM1174 393v405l-158 -405h-84l-162 405v-405h-127v607h172l160 -402l155 402h174v-607h-130z" />
    <glyph glyph-name="uni25CC" unicode="&#x25cc;" horiz-adv-x="934" 
d="M649 580l-35 -82q-20 31 -55 55zM637 226l-76 24q33 20 53 51zM299 580l82 -29q-42 -21 -61 -51zM217 404l80 38q-8 -47 0 -78zM645 402q0 18 -4 38l76 -38l-78 -36q6 18 6 36zM467 152l-37 76q32 -9 72 2zM467 652l37 -78q-40 8 -78 -2zM284 228l34 79q26 -41 52 -55z
" />
    <glyph glyph-name="thothannobasethai" unicode="&#xf700;" horiz-adv-x="807" 
d="M90 375v131h244l112 -328q116 269 119 362q1 93 -41 134t-128 41q-135 0 -168 -139h-185q20 127 118 205q97 77 251 77q73 0 141 -20q56 10 67 86h181q-5 -132 -111 -174q58 -71 54 -187q0 -138 -197 -563h-211l-133 375h-113z" />
    <glyph glyph-name="saraileftthai" unicode="&#xf701;" 
d="M-328 1100v-134h-584l66 134h518z" />
    <glyph glyph-name="saraiileftthai" unicode="&#xf702;" 
d="M-488 1100v118h160v-252h-584l66 134h358z" />
    <glyph glyph-name="saraueleftthai" unicode="&#xf703;" 
d="M-481 1164q-33 -13 -33 -44q0 -30 16 -44t32 -13q16 0 26 4q32 13 32 49t-32 48q-10 4 -20 4t-21 -4zM-608 1114q0 97 90 136q26 12 56 12t58 -12q90 -39 90 -136t-90 -136q-27 -12 -57 -12h-451l68 134h236v14z" />
    <glyph glyph-name="saraueeleftthai" unicode="&#xf704;" 
d="M-706 1100v118h151v-118h76v118h151v-252h-584l68 134h138z" />
    <glyph glyph-name="maieklowleftthai" unicode="&#xf705;" 
d="M-532 1222h164v-258h-164v258z" />
    <glyph glyph-name="maitholowleftthai" unicode="&#xf706;" 
d="M-700 971v123h-70v122h202v-122q113 0 144 76q8 22 8 46h148q0 -104 -78 -173q-78 -70 -236 -72h-118z" />
    <glyph glyph-name="maitrilowleftthai" unicode="&#xf707;" 
d="M-396 1162v48h128q0 -85 -42 -154t-108 -83h-98q0 65 -12 84q-27 44 -42 -15q-8 -30 -8 -69h-94q0 106 -28 102q-31 3 -31 -102h-117q-8 161 78 211q24 14 51 14q68 0 93 -53q35 53 93 53t94 -56q11 -18 17 -42q26 30 26 62z" />
    <glyph glyph-name="maichattawalowleftthai" unicode="&#xf708;" 
d="M-432 1071v-105h-154v105h-116v121h116v102h154v-102h116v-121h-116z" />
    <glyph glyph-name="thanthakhatlowleftthai" unicode="&#xf709;" 
d="M-348 1090q-156 0 -156 -122h-152q0 116 81 180t227 68v-126z" />
    <glyph glyph-name="maieklowrightthai" unicode="&#xf70a;" 
d="M-244 1222h164v-258h-164v258z" />
    <glyph glyph-name="maitholowrightthai" unicode="&#xf70b;" 
d="M-486 971v125h-71v124h211v-124q118 0 157 77q11 21 11 47h150q0 -104 -87 -176q-87 -73 -247 -73h-124z" />
    <glyph glyph-name="maitrilowrightthai" unicode="&#xf70c;" 
d="M-450 1151q47 53 100 53q102 0 131 -100q43 48 43 114h146q0 -82 -54 -157t-131 -90h-111q0 66 -13 84q-13 19 -22 19q-18 1 -26 -33q-9 -34 -9 -70h-108q0 104 -32 104q-26 0 -34 -71q-2 -18 -2 -33h-130q-8 114 36 173q44 60 113 60t103 -53z" />
    <glyph glyph-name="maichattawalowrightthai" unicode="&#xf70d;" 
d="M-82 1073v-107h-156v107h-120v125h120v104h156v-104h121v-125h-121z" />
    <glyph glyph-name="thanthakhatlowrightthai" unicode="&#xf70e;" 
d="M-41 1090q-155 0 -155 -122h-152q0 116 80 180t227 68v-126z" />
    <glyph glyph-name="yoyingnobasethai" unicode="&#xf70f;" horiz-adv-x="1325" 
d="M92 438q0 96 -70 134q28 117 121 202q94 84 259 84q256 0 337 -188q33 -75 33 -178v-201q0 -74 47 -123q45 -43 108 -43t107 40t43 126v549h170v-564q0 -144 -93 -220t-228 -76q-136 0 -230 79t-94 217v232q0 131 -105 182q-37 18 -89 18q-135 0 -187 -76
q-15 -22 -21 -44q60 -43 60 -152v-299h90v-137h-258v438z" />
    <glyph glyph-name="maihanakatleftthai" unicode="&#xf710;" 
d="M-616 968v202h155v-72h543v-130h-698z" />
    <glyph glyph-name="nikhahitleftthai" unicode="&#xf711;" 
d="M-548 1260q28 12 77 12t97 -46t48 -113t-47 -114t-114 -47t-111 46q-45 46 -45 96q-1 51 11 80t34 51q22 23 50 35zM-542 1112q0 -12 4 -22q14 -36 44 -36q29 0 47 17q19 17 19 39t-13 36t-23 19t-22 5t-22 -5t-18 -13t-12 -18t-4 -22z" />
    <glyph glyph-name="maitaikhuleftthai" unicode="&#xf712;" 
d="M-447 979q-67 0 -103 43q-10 12 -15 26q-14 -24 -50 -47q-37 -22 -81 -22q-83 0 -123 54q-39 54 -39 115q0 157 130 192q38 12 81 12h383v-119h-371q-47 2 -69 -25q-22 -26 -14 -56t19 -39t27 -9q52 0 48 76h108q-4 -76 45 -76q48 0 39 76h118q17 -149 -78 -190
q-28 -11 -55 -11z" />
    <glyph glyph-name="maiekupperleftthai" unicode="&#xf713;" 
d="M-484 1558h156v-245h-156v245z" />
    <glyph glyph-name="maithoupperleftthai" unicode="&#xf714;" 
d="M-633 1310v126h-77v124h210v-124q119 0 161 77q11 21 11 47h146q0 -104 -88 -177t-246 -73h-117z" />
    <glyph glyph-name="maitriupperleftthai" unicode="&#xf715;" 
d="M-404 1528q90 0 113 -90q39 56 39 118h133q0 -107 -84 -196q-40 -42 -83 -50h-107q0 93 -27 93q-26 3 -26 -63v-30h-109q0 96 -25 93q-26 0 -26 -93h-125q-11 155 81 205q26 13 54 13q57 0 94 -52q35 52 98 52z" />
    <glyph glyph-name="maichattawaupperleftthai" unicode="&#xf716;" 
d="M-332 1415v-105h-152v105h-118v121h118v102h152v-102h119v-121h-119z" />
    <glyph glyph-name="thanthakhatupperleftthai" unicode="&#xf717;" 
d="M-176 1336q-156 0 -156 -122h-152q0 175 180 230q57 16 128 18v-126z" />
    <glyph glyph-name="saraulowthai" unicode="&#xf718;" 
d="M-236 -656v185h-73v129h231v-314h-158z" />
    <glyph glyph-name="sarauulowthai" unicode="&#xf719;" 
d="M-307 -670q-220 0 -229 199h-74v129h233v-114q-1 -82 69 -82t70 82v114h158v-114q0 -149 -121 -197q-43 -17 -106 -17z" />
    <glyph glyph-name="phinthulowthai" unicode="&#xf71a;" 
d="M-286 -451q0 92 69 119q21 8 45 8t53 -12t44 -45t15 -69t-24 -59q-42 -42 -89 -42t-80 31q-33 32 -33 69z" />
    <glyph glyph-name="lochula.short" unicode="&#xf71d;" horiz-adv-x="1112" 
d="M850 619q0 35 -5 51q-16 52 -97 51v119q85 4 118 27q58 38 66 106h192q-23 -167 -158 -203q44 -38 53 -95t-7 -116l-138 -559h-186l-150 482l-145 -482h-186l-187 840h189l103 -617l142 485h174l150 -487q8 42 16 82q8 41 15 79t24 121q17 82 17 116z" />
    <glyph glyph-name="rulakkhangyao" unicode="&#xf881;" horiz-adv-x="1300" 
d="M260 452v-315h90v-137h-258v454q0 90 -70 128q28 117 122 197q95 79 276 79q182 0 274 -92q84 90 226 90q209 0 280 -163q22 -55 22 -130v-835h-168v806q0 174 -134 174q-120 0 -136 -130q6 -34 6 -72v-778h-168v814q0 35 -19 71q-19 35 -44 56q-53 44 -149 46
q-136 3 -191 -80q-15 -21 -19 -37q60 -38 60 -146z" />
    <glyph glyph-name="lulakkhangyao" unicode="&#xf882;" horiz-adv-x="1353" 
d="M1108 534q0 174 -135 174q-59 0 -95 -34t-40 -106q4 -32 4 -62v-778h-170v792q0 130 -116 177q-42 17 -99 17q-98 1 -155 -37t-66 -79q57 -50 59 -146v-452h-250v137h82v317q0 87 -69 128q38 161 188 234q88 42 206 42q198 0 292 -94q88 92 229 92q212 0 280 -163
q23 -55 23 -130v-835h-168v806z" />
    <glyph glyph-name="yamakkanleftthai" 
d="M-284 1198q-67 0 -88 -19t-21 -63v-34h-41q-50 0 -69 -29t-19 -85h-152q0 131 83 194q29 22 69 32q12 60 70 96t168 37v-129z" />
    <glyph glyph-name="saraamleft" horiz-adv-x="715" 
d="M-548 1260q28 12 77 12t97 -46t48 -113t-47 -114t-114 -47t-111 46q-45 46 -45 96q-1 51 11 80t34 51q22 23 50 35zM-542 1112q0 -12 4 -22q14 -36 44 -36q29 0 47 17q19 17 19 39t-13 36t-23 19t-22 5t-22 -5t-18 -13t-12 -18t-4 -22zM22 563q0 134 93 214q93 79 219 79
q209 0 280 -163q23 -55 23 -130v-563h-168v534q-2 174 -135 174q-58 0 -94 -36t-42 -109h-176z" />
    <glyph glyph-name="uni0E33.alt1" horiz-adv-x="715" 
d="M-548 1260q28 12 77 12t97 -46t48 -113t-47 -114t-114 -47t-111 46q-45 46 -45 96q-1 51 11 80t34 51q22 23 50 35zM-542 1112q0 -12 4 -22q14 -36 44 -36q29 0 47 17q19 17 19 39t-13 36t-23 19t-22 5t-22 -5t-18 -13t-12 -18t-4 -22zM22 563q0 134 93 214q93 79 219 79
q209 0 280 -163q23 -55 23 -130v-563h-168v534q-2 174 -135 174q-58 0 -94 -36t-42 -109h-176z" />
    <glyph glyph-name="saraithai.alt1" 
d="M-78 1100v-134h-612l68 134h544z" />
    <glyph glyph-name="saraiithai.alt1" 
d="M-238 1100v118h160v-252h-612l68 134h384z" />
    <glyph glyph-name="sarauethai.alt1" 
d="M-227 1164q-33 -13 -33 -44q0 -30 16 -44t32 -13q16 0 26 4q32 13 32 49t-32 48q-10 4 -20 4t-21 -4zM-354 1114q0 96 89 136q27 12 57 12t58 -12q90 -39 90 -136t-90 -136q-27 -12 -57 -12h-483l68 134h268v14z" />
    <glyph glyph-name="saraueethai.alt1" 
d="M-456 1100v118h151v-118h75v118h152v-252h-612l68 134h166z" />
    <glyph glyph-name="saraithai.alt2" 
d="M-293 1100v-134h-791l66 134h725z" />
    <glyph glyph-name="saraiithai.alt2" 
d="M-452 1100v118h159v-252h-791l66 134h566z" />
    <glyph glyph-name="sarauethai.alt2" 
d="M-368 1116q0 22 -15 37t-37 15t-38 -15q-15 -15 -15 -38t15 -37q16 -14 38 -15q22 0 37 15q15 16 15 38zM-568 1114q0 60 44 104t89 44q114 0 149 -90q12 -27 12 -58q0 -62 -43 -105t-103 -43h-664l68 134h448v14z" />
    <glyph glyph-name="saraueethai.alt2" 
d="M-672 1100v118h152v-118h76v118h151v-252h-791l68 134h344z" />
    <glyph glyph-name="maiekthai.alt2" 
d="M-448 1558h155v-245h-155v245z" />
    <glyph glyph-name="maithothai.alt2" 
d="M-612 1310v126h-78v124h211v-124q119 0 161 77q12 21 11 47h145q0 -105 -87 -177q-87 -73 -247 -73h-116z" />
    <glyph glyph-name="maitrithai.alt2" 
d="M-362 1528q90 0 112 -90q39 49 39 118h133q0 -107 -84 -196q-43 -43 -84 -50h-106q0 93 -27 93q-25 3 -25 -63q-2 -16 -2 -30h-108q0 96 -24 93q-27 0 -27 -93h-125q-11 156 80 205q26 13 55 13q57 0 94 -52q35 52 99 52z" />
    <glyph glyph-name="maichattawathai.alt2" 
d="M-295 1415v-105h-151v105h-119v121h119v102h151v-102h119v-121h-119z" />
    <glyph glyph-name="saraithai.alt3" 
d="M-78 1100v-134h-956l68 134h888z" />
    <glyph glyph-name="saraiithai.alt3" 
d="M-238 1100v118h160v-252h-956l68 134h728z" />
    <glyph glyph-name="sarauethai.alt3" 
d="M-354 1114q0 96 58 122t88 26q62 0 105 -43t43 -89q0 -78 -43 -121t-104 -43h-827l68 134h612v14zM-260 1115q0 -11 4 -21t11.5 -16.5t17 -10.5t20.5 -4q22 0 37.5 14t15.5 32q0 28 -14.5 43.5t-31.5 15.5t-27 -4t-17.5 -11.5t-11.5 -17t-4 -20.5z" />
    <glyph glyph-name="saraueethai.alt3" 
d="M-456 1100v118h151v-118h75v118h152v-252h-956l68 134h510z" />
    <glyph glyph-name="maiekthai.alt4" 
d="M-236 1456h156v-246h-156v246z" />
    <glyph glyph-name="maithothai.alt4" 
d="M-389 1208v125h-78v125h211v-125q79 2 125.5 37t46.5 88h146q0 -102 -86.5 -176t-247.5 -74h-117z" />
    <glyph glyph-name="maitrithai.alt4" 
d="M-78 1454h134q0 -77 -52 -155.5t-116 -90.5h-107q0 92 -26.5 92t-26.5 -92h-109q1 92 -25 92t-26 -92h-125q-11 157 48 187.5t87 30.5q59 0 94 -52q35 52 97 52q63 0 86 -34t29 -56q38 43 38 118z" />
    <glyph glyph-name="maichattawathai.alt4" 
d="M-82 1313v-105h-152v105h-118v121h118v102h152v-102h119v-121h-119z" />
    <glyph glyph-name="maiekthai.alt5" 
d="M-504 1476h156v-245h-156v245z" />
    <glyph glyph-name="maithothai.alt5" 
d="M-654 1229v125h-77v124h211v-124q118 0 160 77q12 21 12 47h145q-2 -106 -88 -177q-86 -72 -245 -72h-118z" />
    <glyph glyph-name="maitrithai.alt5" 
d="M-444 1446q89 0 112 -90q39 39 39 118h133q0 -107 -84 -196q-36 -40 -84 -49h-106q0 92 -27 92q-25 3 -25 -63q-2 -16 -2 -29h-108q0 95 -24 92q-27 0 -27 -92h-125q-7 104 32 160q40 57 100 57q59 0 98 -52q35 52 98 52z" />
    <glyph glyph-name="maichattawathai.alt5" 
d="M-352 1333v-104h-152v104h-118v121h118v102h152v-102h118v-121h-118z" />
    <glyph glyph-name="sarauthai.alt6" 
d="M-404 -410v184h-73v130h231v-314h-158z" />
    <glyph glyph-name="sarauuthai.alt6" 
d="M-362 -424q-221 0 -230 198h-74v130h234v-115q0 -82 70 -82t69 82v115h158v-115q0 -149 -82.5 -181t-144.5 -32z" />
    <glyph glyph-name="phinthuthai.alt6" 
d="M-473 -184q0 46 33.5 80t69.5 34q59 0 91.5 -34t32.5 -68q0 -57 -32.5 -91t-68.5 -34q-35 0 -56 9t-45.5 33.5t-24.5 70.5z" />
    <glyph glyph-name="sarauthai.alt7" 
d="M-383 -410v184h-73v130h230v-314h-157z" />
    <glyph glyph-name="sarauuthai.alt7" 
d="M-465 -424q-220 0 -229 198h-74v130h234v-115q0 -82 69 -82t69 82v115h158v-115q0 -149 -82 -181t-145 -32z" />
    <glyph glyph-name="phinthuthai.alt7" 
d="M-440 -184q0 46 33.5 80t68.5 34q58 0 91.5 -33.5t33.5 -68.5t-9 -55.5t-24.5 -36t-35.5 -24.5t-44 -9t-44.5 9t-45 33.5t-24.5 70.5z" />
    <glyph glyph-name="maihanakatthai.alt8" 
d="M-637 968v202h155v-72h646v-130h-801z" />
    <glyph glyph-name="maiekthai.alt8" 
d="M-492 1558h156v-245h-156v245z" />
    <glyph glyph-name="maithothai.alt8" 
d="M-626 1310v126h-78v124h210v-124q119 0 161 77q11 21 11 47h146q0 -105 -87 -177q-87 -73 -247 -73h-116z" />
    <glyph glyph-name="maitrithai.alt8" 
d="M-340 1528q90 0 112 -90q40 50 40 118h132q0 -107 -84 -196q-40 -43 -83 -50h-107v26q0 32 -9 50q-9 17 -17 17q-27 3 -27 -93h-109v30q-4 66 -24 63q-26 0 -26 -67v-26h-126q-8 107 36 164q38 54 99 54t95 -52q35 52 98 52z" />
    <glyph glyph-name="maichattawathai.alt8" 
d="M-338 1415v-105h-152v105h-118v121h118v102h152v-102h119v-121h-119z" />
    </font>
</defs>
</svg>
